<svg id="Layer_1" data-name="Layer 1" xmlns="http://www.w3.org/2000/svg" viewBox="0 0 1000 1000"><defs><style>.cls-1{fill:#c4d600;}.cls-1,.cls-13,.cls-2,.cls-3,.cls-4,.cls-5,.cls-6{fill-rule:evenodd;}.cls-2{fill:#4ec1e0;}.cls-3{fill:#1f1e1d;}.cls-4{fill:#bd8944;}.cls-5{fill:#e5e5e5;}.cls-6{fill:#ffce00;}.cls-7{fill:#fff;}.cls-8{fill:#89d1f5;}.cls-9{fill:#65b3e3;}.cls-10{fill:#2291c9;}.cls-11{fill:#231f20;opacity:0.2;}.cls-12,.cls-13{fill:none;}.cls-12{stroke:#bcbec0;stroke-miterlimit:10;stroke-width:1.45px;stroke-dasharray:6.69;}</style></defs><path id="path0" class="cls-1" d="M504.65,61.61c-1.39.28-7,1.3-12.6,2.26C476.36,66.59,446.11,75.79,435.6,81c-1.11.55-7,3.31-13,6.13a350.45,350.45,0,0,0-63.09,37.93c-5.82,4.37-12.85,9.22-15.63,10.77-6.54,3.66-13.18,10.2-19.83,19.52-2.94,4.12-7.62,10.52-10.39,14.24-8.85,11.82-10.51,14.21-16.62,23.88-36.23,57.36-54.08,124.32-52,195.09.65,22.23.54,21.81,3.51,13.5,1.26-3.51,3.65-10,5.32-14.38s2.7-8.61,2.28-9.37-.35-1.08.23-.69,2.49-2.93,4.32-7.35c13.21-31.91,32.58-69.43,46-89.19,13.57-19.92,18.38-24.21,10.56-9.41-3.82,7.23-5.16,10.19-12.5,27.63-7.92,18.85-15.39,39.45-21.4,59.05-2.35,7.66-6.41,20.69-9,29-12.59,40.07-16.68,59.64-16.68,79.81,0,24.17,8.36,51.64,15.73,51.64,4.36,0,17.53-20.41,17.53-27.16a3.07,3.07,0,0,1,.89-2.28c.49-.34,1.2-2.42,1.58-4.64a46.2,46.2,0,0,1,2.06-7.53c.75-1.93,3.73-10.78,6.62-19.66,4.64-14.32,6.86-20.6,10-28.41.5-1.23,2.71-7,4.92-12.85,11.51-30.48,34.36-75.68,49-96.92,11.86-17.23,21.34-27,14.73-15.14-6.31,11.27-20.64,45.85-30.87,74.5-8.44,23.6-10.82,30.72-15,44.58-19.56,65.47-24.36,96-19.36,122.8,6.83,36.62,19.25,30.81,33.33-15.59,3.16-10.42,6.33-20.45,7-22.28s2.31-6.35,3.56-10c3.93-11.54,7.32-21,9.25-25.84a43,43,0,0,0,1.86-5.27c0-3.08,21-48.76,31.34-68.27,14.86-27.95,41.2-65.35,43.91-62.35.33.36-1.72,4.65-4.55,9.53s-8.23,15.56-12,23.72c-6.42,13.94-8.21,18.14-14.93,34.9-10.4,25.95-24.07,66.32-28.49,84.11-.53,2.15-2.65,10.17-4.69,17.83-10.14,37.9-11,50.3-4.26,61.38,4,6.66,11.58,3.67,22.06-8.77,4.26-5,5.72-7.32,16.27-25.44,4.18-7.17,16.48-30.84,21.06-40.54,1-2.15,2.27-4.65,2.79-5.57,5.45-9.67,14.15-27.1,14.15-28.36a3.09,3.09,0,0,1,1-2.29c1-.67,9.06-13.61,9.06-14.53,0-.45,13.25-22.25,20.62-33.92,15.45-24.47,45.7-61.71,59.52-73.27,3.33-2.79,7.41-6.46,9.08-8.17,9.7-10,29.43-11.15,44.85-2.66,5.18,2.85,11.84,6.12,12.46,6.12.35,0,.65-2,.65-4.42,0-26.38,29-37.07,61.49-22.69,8.43,3.73,20.69,11.85,28.23,18.69,12.95,11.76,12.06,11.16,13.71,9.33,6.14-6.78,3.67-79.91-3.74-110.8-1.16-4.81-2.56-10.76-3.1-13.21a60.35,60.35,0,0,0-1.86-6.69c-4.24-11.05-5-13.27-5-14.49,0-2.64-13.62-31.18-19.65-41.16-22.81-37.8-68.05-70-111.91-79.66-3.33-.73-7.86-1.84-10.08-2.45-4.1-1.14-49.33-2.3-53.93-1.38m25.51,347.47c0,3.68.2,5.05.42,3a32.34,32.34,0,0,0,0-6.68c-.23-1.68-.41,0-.41,3.64"/><path id="path1" class="cls-2" d="M226.38,434.4c-38.82,19.49-67.16,42.34-93.25,75.22-12.27,15.45-31.46,49.78-32.87,58.76a5.83,5.83,0,0,1-1.09,2.85c-.73.6-2.24,7.69-5.33,25-.88,4.91-2.14,11.68-2.8,15-2.15,10.89-1.43,50.71,1.17,65.1C104.06,741.76,136,792,195.79,839.33c24.56,19.44,68.45,45.44,82.79,49,1.24.31,2,1.09,1.61,1.73s.15.93,1.52.53c1.2-.34,2.43-.17,2.74.38a3.14,3.14,0,0,0,2.52,1c1.07,0,1.95.46,1.95,1s3.29,1.6,7.31,2.32,9.35,1.76,11.85,2.32c25,5.6,89.9,7.05,91.56,2,.19-.56,2.57-1,5.29-1s5-.51,5-1.12,1-1.11,2.28-1.11c2.8,0,26.79-6.72,37-10.38,18-6.42,41.3-17.62,54.21-26.05a90.47,90.47,0,0,1,7.81-4.79c.65,0,13.71-10,15.56-11.85s-.45-2-9.46-.46c-39.38,6.8-102.83,8-129.11,2.4-8.15-1.72-9.21-2.16-5.55-2.23,37.43-.82,134.67-19.06,166.84-31.3,25.1-9.54,52.92-36,52.92-50.31,0-6.56-17.62-7.93-40.32-3.13-34.42,7.29-36.5,7.68-46.89,8.86-5.54.63-12.56,1.61-15.61,2.19s-13.94,1.57-24.19,2.22l-26.75,1.72c-15.24,1-49.24-1.67-68-5.37l-7.56-1.5,7.56-.68c4.15-.38,13.91-1.2,21.67-1.83,29.25-2.37,71.93-9.34,103.33-16.86C531.33,741,533,740.49,537,738.23c2.17-1.22,5.18-2.14,6.72-2,4.45.29,19.4-4.8,30.29-10.31a72.66,72.66,0,0,1,6.82-3.21c7.7,0,34.72-29.74,34.72-38.21,0-5.17-17.89-8.27-31.25-5.4-3,.65-11,2.4-17.64,3.9-17.17,3.84-29.08,6.17-37.81,7.38-4.15.58-11,1.55-15.12,2.17-38.09,5.66-113.43,5.36-122-.49a80.33,80.33,0,0,0-9.64-1.64c-19.46-2.62-16.84-3.89,8.4-4,39.1-.27,103.87-9.85,138.35-20.48,1.94-.6,8.52-2.4,14.62-4,32.24-8.46,44.57-16.49,46-30,.34-3.16,0-3.56-7.08-7.35-13.24-7.14-29.48-8.66-81.77-7.68-74.74,1.4-143.12-7.58-177.09-23.26-3.78-1.74-9.35-4.12-12.36-5.28C297.34,583,287,561.57,286.93,538c0-8.06.33-7.86-7-3.93-29.36,15.89-54.57-34.57-44.62-89.33,1.11-6.11,1.83-11.44,1.6-11.84-1.11-2-4.65-1.5-10.57,1.47"/><path id="path3" class="cls-3" d="M494.57,37.52c-14.75,2-26.12,4.3-36.29,7.41-8.27,2.52-27.58,9.52-28.73,10.4a46.81,46.81,0,0,1-6.05,2.81C415,61.59,389.61,75.8,382.67,81c-1.38,1-6.15,4.56-10.58,7.8-61.54,45-109.36,116.78-133.21,199.94a384.88,384.88,0,0,0-14.33,110.79l.36,18.33-2.52,1.38-16,8.72C102.87,484.42,48.58,604.33,78.28,711c20.86,74.91,67.43,132.26,139.07,171.26,10.38,5.65,29.4,14.23,31.54,14.23a3.65,3.65,0,0,1,2.28,1c1,1,25.43,8.83,36.74,11.71,39.41,10,95.19,11.74,130.55,4,2.77-.61,8.67-1.83,13.11-2.73,31.9-6.44,79.2-27.11,103.27-45.11,11.59-8.67,10.73-8.6,19.81-1.58,4.38,3.39,12.27,9,17.54,12.45s9.91,6.87,10.32,7.58,2.26,1.61,4.12,2a11.87,11.87,0,0,1,5.65,3.37,12.28,12.28,0,0,0,6,3.42,15.07,15.07,0,0,1,4.71,1.62c4.09,3.45,34.5,14.82,48.89,18.28,23.28,5.6,24,5.68,50.4,5.71,26.87,0,30.3-.38,52.18-6.25,9-2.42,23.83-7.73,29.48-10.58,17.62-8.88,33.35-19.14,44.85-29.26,32-28.1,56.38-66.58,70.8-111.52,4.35-13.56,5.15-16.52,7.8-28.67C925.69,647.43,911.11,552.7,867.2,471c-5.07-9.44-10.47-18.64-12-20.45s-2.77-3.74-2.77-4.29c0-3.5-20.71-30.65-37.35-49-22.77-25.05-47-45-73-60.19L731,330.65l.12-7c.07-3.86.46-16,.87-27.07a314,314,0,0,0-5.58-69.63c-1.18-5.82-2.53-12.6-3-15.06-1.15-6.13-7.48-26.83-8.75-28.61a16.18,16.18,0,0,1-1.75-4.79c-1.12-5.21-12.79-30.23-18.71-40.1C649.75,64.26,575.35,26.67,494.57,37.52m55.1,15.56a208.46,208.46,0,0,1,32.1,7.85C645,80.79,697.06,147.53,712.71,228.6c7.78,40.36,7.5,105-.47,105.26-.32,0-2.13-1.53-4-3.43-40.4-40.35-93.28-44.11-96.33-6.85-.78,9.48.06,9.18-10.56,3.77-20-10.18-34.66-10.77-45.16-1.83l-11.34,9.62c-22.09,18.69-69.7,83.2-85.26,115.54a43.91,43.91,0,0,1-3.79,5.93c-1.39,1.83-2.53,3.9-2.53,4.59s-2.43,5.79-5.41,11.33-9.39,18.1-14.25,27.9c-23.83,48-34.44,63.36-50.07,72.43-24.49,14.23-30.85-8.36-15.85-56.28,2.21-7,5.17-16.57,6.59-21.16,13-42.16,41.19-106.8,63-144.27,6.62-11.39,6.67-11.62,1.43-6.13-14.65,15.33-33.73,47-51.35,85.22-10.28,22.32-24.8,58.45-24.8,61.72,0,.87-1.08,4.12-2.41,7.25s-5.22,14.95-8.66,26.29c-11.23,37-18.43,47.9-31.61,47.9-12.38,0-19.85-20.4-18.37-50.13.78-15.63.85-16,8.3-43.22,12.78-46.79,33.87-102.71,54.71-145.06,16.33-33.16,17-35.94,4.58-18.38-22.85,32.29-47.61,85-66.19,140.93-2.75,8.27-5.9,18-7,21.72-5.91,19.74-9.6,28.12-15.37,34.91-22.95,27-42.85-32.73-27.79-83.37,5.17-17.36,20.44-62.09,25.68-75.19.73-1.84,3.23-8.36,5.56-14.49,6-15.87,18-42.59,26.24-58.5,8.34-16.07,8.43-17,.64-6.12-14.78,20.69-51.13,91-51.13,98.86a9,9,0,0,1-1.36,3.67,143.67,143.67,0,0,0-5.61,13.9c-8.81,24.19-12.28,29.38-13.64,20.38-2-13.09.19-62.71,3.46-78.85.49-2.46,1.88-9.49,3.07-15.62,9.83-50.48,35-106.79,66.41-148.53,4.76-6.34,10.74-14.36,13.29-17.83,4.51-6.17,11.43-13.27,31.31-32.16,53.2-50.55,130.92-77.62,193-67.24M661.91,317.21c22.51,8.72,40.42,25.71,68.64,65.13,34.17,47.72,51.69,74.29,59,89.41a51.67,51.67,0,0,0,3.85,6.9,52.46,52.46,0,0,1,4,7.3c2.71,5.83,3.76,4.09,1.24-2.06-.78-1.93-2.41-6-3.62-9.09-11.49-29.31-33.38-68.62-59-105.83-18-26.18-18-28.77.22-18.22C795.83,385.32,852,454.93,876.72,524.94c.43,1.22,1.72,4.67,2.86,7.66a39.29,39.29,0,0,1,2.09,6.52,20.89,20.89,0,0,0,1.42,4.59c3.4,8.4,9.53,33.09,13.73,55.31,8.39,44.38,4.68,112.72-8.16,150.4-1.14,3.37-2.68,8.13-3.41,10.58-15.34,51.73-56.17,101.72-101.86,124.73-27.88,14-51.57,19-86.7,18.09-25.07-.64-33.65-2.19-61.5-11.16a192,192,0,0,1-25.88-10.94l-15.14-8.44c-10.31-5.74-35.48-23.48-39.87-28.1-3.81-4-2.95-6,3.53-8.38,53.21-19.22,83.69-75.26,49.44-90.93-4-1.82-3.63-2.56,3.48-7.86,15.9-11.85,25.87-27,26.16-39.67.41-18.58-11.37-69-22.33-95.53-.51-1.23-2.82-7.24-5.14-13.37s-5.29-13.51-6.62-16.4-2.41-6.22-2.41-7.4a3.06,3.06,0,0,0-1.33-2.71c-.74-.31-3.45-5.25-6-11-8-17.88-17.67-36.62-36.8-71.69-10.06-18.44-21.9-44.08-22.91-49.57a35.11,35.11,0,0,0-2.17-7.06c-2.23-4.82-2.21-25.82,0-30.52,7.08-14.91,33.52-2.05,49.76,24.21a26.28,26.28,0,0,0,2.9,3.9c1.14,1.07,9.49,11.71,20.13,25.64,9.61,12.57,31.09,45.43,43,65.71,3.58,6.13,7.4,12.6,8.46,14.38s2.89,5,4.05,7.24c10.85,20.59,13.92,26.62,18.42,36.19,6.24,13.27,6.39,12.71,1.15-4-15.89-50.79-47.33-105.67-96.18-167.92-24.13-30.73-29.44-44.54-21.55-56,9.82-14.21,47.19,1,69.57,28.36,4,4.91,9.31,11.25,11.73,14.09,22.12,25.87,65.09,87.49,72.14,103.46,1.15,2.6,2.57,4.73,3.15,4.73s3,3.64,5.32,8.08c4.2,8,11.32,21,13.27,24.23.55.92,1.94,3.6,3.09,6,3.43,7,3.38,3.8-.12-6.71C725.56,481.8,690.63,423,646.59,367.21c-15.24-19.3-21-30.18-21-39.77,0-5.47,3.2-11.14,6.77-12a30.57,30.57,0,0,0,3.81-1.13c3-1.31,19.7.59,25.71,2.91M545.4,363.28c1.65,6.07,1.93,5.82-7.37,6.62l-6.44.56,5.88-6.56c3.23-3.61,6-6.41,6.18-6.23a49,49,0,0,1,1.75,5.61m-30,44.56c.22,22.76,5.43,36.49,34.1,89.8,21.8,40.54,34.67,66.87,44.38,90.8,11.25,27.74,13.57,36.27,8.26,30.4-3.51-3.88-17.16-11.42-25.4-14-11.07-3.51-17.61-3.86-76.62-4.13-57.82-.26-77-1.22-103.57-5.19-15.51-2.33-18.38-3.32-13.46-4.69,16.89-4.68,36.86-29.62,58-72.5,4.26-8.6,11.89-23.72,17-33.62s9.25-18.46,9.25-19a6.62,6.62,0,0,1,1.95-3,27.68,27.68,0,0,0,4-6.86c1.15-2.7,2.53-4.9,3.07-4.9s2.09-2.42,3.45-5.37,3.17-6,4.05-6.82a4.8,4.8,0,0,0,1.59-2.74c0-.71,1.7-3.84,3.78-7s7.07-10.66,11.09-16.76c6.25-9.48,14.11-20.4,14.69-20.4.1,0,.25,7.22.33,16M237,432.93c.23.4-.49,5.73-1.6,11.84C225.4,499.53,250.61,550,280,534.1c7.29-3.93,6.93-4.13,7,3.93.07,23.54,10.41,45,24.24,50.28,3,1.16,8.58,3.54,12.36,5.28,34,15.68,102.35,24.66,177.09,23.26,53.09-1,68,.45,82.28,8,16,8.43,19.7,16,13.23,26.62-6.58,10.85-17.3,14.88-66.28,24.9C491.15,684.28,435.61,689,398,687.67c-14.2-.52-20.3-.39-19.85.42a3,3,0,0,0,2.4,1.17,48.12,48.12,0,0,1,7.75,1.73c24.7,7.13,83,7.84,125.46,1.53,4.16-.62,11-1.59,15.12-2.17,8.73-1.21,20.64-3.54,37.81-7.38,6.65-1.5,14.59-3.25,17.64-3.9,8.82-1.9,24.84-.69,30,2.25,11.55,6.56,10.72,24.58-1.54,33.23a19,19,0,0,0-4,3.83c-2,3-10.34,9.31-17.4,13.17-3.6,2-7.71,4.26-9.14,5.09-2.87,1.69-30.78,9.94-41.76,12.36-20.25,4.44-42.41,8-79.14,12.68-12.82,1.63-40.19,3.46-64,4.28l-21.17.72,8.57,1.91c24.75,5.51,87.29,6,114.92.82,3.05-.57,10.07-1.55,15.61-2.18,9-1,13.6-1.83,31.27-5.55l15.62-3.29c36.41-7.66,50.85-.12,41.48,21.66-12.34,28.7-44.24,43.81-114.06,54.06-4.71.69-13.33,2-19.16,2.85a487.22,487.22,0,0,1-66,5.73l-26.21.68,10.08,2.06c14.06,2.87,46.71,4.19,74.09,3,21.45-.94,29.2-1.74,59.63-6.14,17.17-2.49,20.56-.76,11.19,5.69-16.17,11.13-22.18,14.92-33,20.84-42.6,23.29-84.57,33.62-136.59,33.63-25.91,0-28.8-.28-62.5-6-13.29-2.27-48.36-13.21-57-17.78-1.11-.59-4.51-2.12-7.56-3.41-7-3-29.95-15.88-37.29-21-23.13-16.08-34.43-25.82-50.48-43.53-57.79-63.76-78.5-147.63-55.32-224,3.89-12.84,5.3-16.54,11.21-29.52,24.19-53.19,65-94.35,121.76-122.85,5.92-3,9.46-3.46,10.57-1.47M349.33,577.08a28.66,28.66,0,0,0,3.6,6.13c3.17,4.17,2.59,4.31-6.79,1.65l-6.79-1.92,3.72-4.21c4.34-4.92,5.07-5.11,6.26-1.65M616.63,657c2.07,8.34,2.14,8.11-2.32,7.18-6.14-1.27-6.64-2.15-4.06-7.15,1.24-2.43,2.26-5.24,2.26-6.24,0-4.18,2.47-.45,4.12,6.21"/><path id="path4" class="cls-4" d="M501.89,36.12a16.65,16.65,0,0,0,5,0c1.24-.27,0-.48-2.78-.47s-3.79.22-2.26.48m34.78,0a10.26,10.26,0,0,0,4,0c1-.28-.06-.5-2.28-.49s-3,.24-1.75.51M487,37.55c-5.87,1.16.35,1.2,7.06.05,4.78-.83,4.83-.87,1-.86a51.32,51.32,0,0,0-8.06.81m57-.72a34.05,34.05,0,0,0,6.47,1c3.76.39,5.09.28,3.52-.29-2.48-.9-10.8-1.52-10-.74m-74.18,4.06c-2.71.76-2.76.85-.5.87a17.85,17.85,0,0,0,5-.87c3.39-1.2-.28-1.2-4.54,0m96.78,0a10.14,10.14,0,0,0,3.53,1c1,0,.76-.36-.51-1a10.2,10.2,0,0,0-3.53-1c-.95,0-.76.36.51,1M457.78,44.23c-1.28.61-1.46,1-.51,1a10.2,10.2,0,0,0,3.53-1c1.27-.6,1.45-1,.5-1a10.09,10.09,0,0,0-3.52,1m121,0a10.09,10.09,0,0,0,3.52,1c1,0,.77-.35-.5-1a10.2,10.2,0,0,0-3.53-1c-1,0-.77.36.51,1m9.57,3.18a18.25,18.25,0,0,0,4.54,1.7c1.93.46,2.48.37,1.51-.26a18.81,18.81,0,0,0-4.54-1.7c-1.94-.46-2.48-.37-1.51.26M498.1,52c-2.22.43,1.64.54,8.57.25s12.79-.72,13-.94c.73-.7-17.38-.12-21.59.69m25.79-.69c.23.22,5.63.65,12,1,7.25.35,9.9.23,7.06-.32-4.54-.89-19.87-1.41-19.07-.65M426.52,56c-2.53,1.35-2.61,1.5-.5.94a9.39,9.39,0,0,0,3.48-1.66c1.3-1.35.59-1.18-3,.72m51.42-.6c-2.75.77-2.79.86-.51.91a12.13,12.13,0,0,0,4.54-.91c2.48-1.18.16-1.18-4,0m81.15,0a16.59,16.59,0,0,0,4.53.89c1.6,0,1.5-.18-.5-.89a16.73,16.73,0,0,0-4.54-.89c-1.59,0-1.49.19.51.89m-95.63,3.51c-1.86.59-3.19,1.29-2.95,1.56s2.44-.22,4.9-1.07c5-1.74,3.32-2.16-2-.49m-12.74,4.29c-1.27.6-1.46,1-.51,1a10.2,10.2,0,0,0,3.53-1c1.27-.6,1.46-1,.51-1a10.2,10.2,0,0,0-3.53,1m-45.87,3.34c-1.94,1.18-3.07,2.14-2.52,2.14a16.43,16.43,0,0,0,4.54-2.14c1.94-1.17,3.07-2.13,2.52-2.13a16.61,16.61,0,0,0-4.54,2.13m35.79.6c-2.52,1.34-2.61,1.5-.5.93,2.85-.77,6.06-2.58,4.53-2.56a14.86,14.86,0,0,0-4,1.63m152.72-.79a17.33,17.33,0,0,0,4,1.78c1.75.52,2.06.43,1-.28a17.53,17.53,0,0,0-4-1.78c-1.75-.52-2.06-.43-1,.28M425,73.76c-1.38.87-2.06,1.59-1.51,1.59A10.71,10.71,0,0,0,427,73.76c1.38-.88,2.07-1.6,1.51-1.6a10.58,10.58,0,0,0-3.53,1.6m-9.07,4.45c-1.39.88-2.07,1.59-1.51,1.59A10.39,10.39,0,0,0,418,78.21c1.39-.88,2.07-1.59,1.52-1.59a10.5,10.5,0,0,0-3.53,1.59m-6.3,3.42c-3.77,2.26-3.54,3.2.25,1,1.66-1,3-2,3-2.26,0-.72-.11-.68-3.28,1.22M652.05,86c1.51,1.76,2.92,3,3.14,2.7s-1-1.71-2.74-3.2l-3.14-2.68L652.05,86M368.81,90c-2.36,1.84-4.28,3.6-4.28,3.9s2-1,4.53-2.9,4.54-3.67,4.54-4c0-.77-.19-.65-4.79,3m298.64,12.14c6.08,6.74,11.28,12.26,11.56,12.26s-4.47-5.52-10.55-12.26S657.18,89.91,656.9,89.91s4.48,5.51,10.55,12.25m-29.74-8.62A29.47,29.47,0,0,0,642,97.75c2.36,2.07,3.64,2.88,2.86,1.81-1.47-2-7.15-6.8-7.15-6M350.92,105.07l-4,4,4.28-3.54c3.69-3,5-4.52,4-4.46a57.69,57.69,0,0,0-4.28,4m21.82,1.48a67.84,67.84,0,0,0-6.55,5.73c-1.27,1.55,9-6.25,11.41-8.64,2.7-2.71.6-1.46-4.86,2.91m283.67,5.7c5,5.86,9.23,10.47,9.49,10.26s-3.81-5-9-10.64l-9.48-10.27,9,10.65m-313.62.22-3,3.61,3.28-3.26a26.53,26.53,0,0,0,3.27-3.63c0-.86-.83-.1-3.59,3.28M359,118.4l-5,5.1,5.3-4.72c4.75-4.23,5.89-5.48,5-5.48-.15,0-2.53,2.3-5.29,5.1m-27.7,5.26c-7.81,8.25-22.7,25.29-22.1,25.29.24,0,7-7.27,15-16.16,15-16.67,18.62-21.28,7.11-9.13m18.26,3.07c-1.33,1.23-2.2,2.46-1.94,2.75s1.54-.73,2.84-2.26c2.83-3.32,2.42-3.54-.9-.49M667,125.49c0,.65.37,1.18.81,1.18s3,3.26,5.63,7.24c4.26,6.41,7.08,9.69,5,5.85-3.57-6.7-11.47-16.53-11.47-14.27m24.66,8.7c1.55,2.61,3,4.73,3.25,4.73.73,0-3.13-6.78-4.64-8.16-.79-.72-.17.83,1.39,3.43m-355.88,6.7c-5,5.35-7.07,7.68-4.54,5.18s5.88-5.61,7.44-6.9c2.52-2.08,7.41-8.06,6.57-8-.18,0-4.44,4.39-9.47,9.75M680,144.3a9.4,9.4,0,0,0,2.22,3c.79.54.78.11,0-1.55a9.51,9.51,0,0,0-2.21-3.05c-.79-.54-.79-.1,0,1.55m-374.32,8.87-1.94,3,2.69-2.7c2.83-2.84,3.18-3.45,1.94-3.39-.42,0-1.63,1.4-2.69,3.07M314,167.61c-4,5.36-8.22,10.94-9.37,12.41s-1.6,2.46-1,2.23,4-4.4,7.56-9.26,7.48-10.24,8.77-12,2.1-3.16,1.81-3.16-3.8,4.39-7.8,9.75m375.81-5.71c1,3,6.33,13.29,6.34,12.37,0-1.19-5.94-14.18-6.51-14.18-.25,0-.18.81.17,1.81m-397.48,9.61-5.73,8.36c-.52.76-.73,1.39-.45,1.39s3.06-3.76,6.19-8.36,5.48-8.35,5.22-8.35-2.61,3.13-5.23,7m417-3.06a13.25,13.25,0,0,0,1.44,3.9c.79,1.53,1.44,2.28,1.44,1.67a13.05,13.05,0,0,0-1.44-3.9c-.79-1.53-1.44-2.29-1.44-1.67m3.5,10a13.53,13.53,0,0,0,2.15,5c1.1,1.29,1,.64-.24-2.78-2.11-5.66-2.82-6.49-1.91-2.22m-13.2,6.12c1.18,4.61,4.93,15,5.86,16.15.48.62-.55-3.13-2.28-8.32-3-9.18-5-13.45-3.58-7.83m-398.36.28c-2,2.82-2.64,4.55-1.45,3.73s3.58-5.13,2.84-5.13c-.23,0-.85.63-1.39,1.4m415.62,4.18a21.7,21.7,0,0,0,1.61,4.45c.65,1.16.73.82.26-1.11a22,22,0,0,0-1.61-4.46c-.65-1.16-.73-.82-.26,1.12M294,197.13c-2.92,4.76-3.31,5.73-1.23,3.07a60,60,0,0,0,4.69-7c3-5.52.9-3.2-3.46,3.9m-9.95,16.71c-5.52,10.18-8.52,16.44-7.89,16.44.23,0,2.8-4.64,5.72-10.31s6-11.43,6.78-12.81,1.23-2.51.93-2.51-2.8,4.14-5.54,9.19M707,207.44a22.65,22.65,0,0,0,1.44,5c1.51,3,1-1.25-.62-5l-1.42-3.34.6,3.34m16.52,5.1a16.61,16.61,0,0,0,1,4.93c.63,1.55.72.87.29-2.24-.71-5.17-1.38-6.58-1.28-2.69m-14,3.81c0,2.37,2.59,11.91,2.74,10a44.61,44.61,0,0,0-1.32-6.69c-.77-3.06-1.41-4.56-1.42-3.34m-448.3,9.57c-.88,1.9-1.43,3.65-1.21,3.89s1.15-1.31,2.07-3.45c2.08-4.8,1.36-5.17-.86-.44m465.48,1.57a22.17,22.17,0,0,0,.8,5c.64,2.21.81,2.33.81.56a21.76,21.76,0,0,0-.81-5c-.64-2.21-.8-2.32-.8-.56M713.54,237a34.7,34.7,0,0,0,.79,6.13l.77,3.34,0-3.34a26.27,26.27,0,0,0-.79-6.13l-.81-2.78,0,2.78M270.78,240.3c-.65,1.33-.95,2.67-.67,3s1-.53,1.68-1.87.94-2.66.67-3-1,.53-1.68,1.86M267.3,249c-3,6.89-4.64,11.4-4.11,11.4s6.71-14.7,6.27-15.2c-.19-.2-1.16,1.51-2.16,3.8m462.87,3.61a48.89,48.89,0,0,0,.93,7.7c.67.85.14-8.2-.68-11.6-.51-2.11-.61-.66-.25,3.9m-479.39-2.74c-1.69,4.1-1.37,5,.46,1.24.86-1.74,1.36-3.37,1.13-3.62s-.94.82-1.59,2.38m464.79.51c0,2.14.21,3,.46,1.95a10.23,10.23,0,0,0,0-3.9c-.25-1.07-.46-.19-.46,2m1.28,39c0,17.46.29,29,.65,25.62.86-8,.87-44.66,0-51.8-.37-3.06-.67,8.72-.67,26.18m-456-24.38c-.62,2-1,3.76-.76,4s.95-1.13,1.65-3,1.05-3.68.76-4-1,1-1.65,3m470.93,1c0,2.75.2,3.88.44,2.5a17.52,17.52,0,0,0,0-5c-.24-1.38-.44-.25-.44,2.51m-414.71.8c-1.88,2.31-5.62,7.47-8.3,11.45-5.2,7.74-2.92,5.3,4.14-4.43,4-5.48,6-6.63,2.92-1.67s-6.92,13.23-5.46,11.67c2.17-2.33,11.26-20,10.64-20.66-.28-.31-2.06,1.33-3.94,3.64m-72.35.43c-.62,2-1,3.78-.74,4s.9-1.17,1.53-3.14.95-3.78.73-4-.9,1.17-1.52,3.14m13.16,6.06c-1.69,4.09-1.37,5,.46,1.24.85-1.74,1.36-3.37,1.13-3.62s-.95.81-1.59,2.38m39.78,21.95c-6.56,11.22-11.07,19.77-10.42,19.77.27,0,2.44-3.63,4.82-8.08s5.74-10.33,7.48-13.08c4.16-6.63,4.78-7.8,4.08-7.8-.32,0-3,4.13-6,9.19m8.49-4.85c-1.16,2.52-1.92,4.57-1.68,4.57.76,0,4.75-8.06,4.26-8.6-.26-.29-1.42,1.53-2.58,4m-54.92,4.09c-.37,1.63-.48,3.18-.24,3.45s.74-.86,1.11-2.49.48-3.19.24-3.45-.74.86-1.11,2.49m-16.13,4.46c-.37,1.63-.47,3.18-.24,3.44s.74-.85,1.11-2.48.48-3.19.24-3.45-.74.86-1.11,2.49m395.85-.51c-3.83,1.22-4.48,2.48-.75,1.44,1.39-.38,4.91-1.08,7.81-1.55l5.29-.86-4.54,0a30.74,30.74,0,0,0-7.81,1m21.92.44c4.72.81,8.7,1.33,8.87,1.15.7-.77-9.15-2.82-13.09-2.72-3.3.08-2.28.46,4.22,1.57m-276.27,6.28c-6.35,8.1-15.3,20.77-16.43,23.23-.81,1.79,1.52-1.28,10.78-14.25,9.6-13.43,8-8.26-6.41,20.93-13.34,27-30.68,69.51-42.14,103.28-6,17.67-18.48,61.67-19.7,69.4-4.65,29.58,1.94,62.21,13.2,65.33,3.86,1.07,11.43-.29,13.24-2.39,1.55-1.81,1.52-1.85-.46-.73-7.29,4.11-14.7-19.79-14.8-47.72-.08-22.33,13-78.25,28.9-123.36,14.64-41.58,19.47-54,31.5-80.91,5.83-13,6-13.51,4.25-12.31-.73.49-.89.3-.44-.51s1.13-1,1.62-.7c1,.71,3.3-3.5,2.78-5.2-.19-.65-2.84,2-5.89,5.91m243.18-.62a31.23,31.23,0,0,0-5.32,6.26c-.61,1.25.87.07,3.28-2.6a52.09,52.09,0,0,1,6.41-6.2c1.1-.73,1.53-1.36.94-1.4s-3,1.74-5.31,3.94m47.07-2.28a18.66,18.66,0,0,0,4,1.58c1.3-.08-4.47-3.22-5.92-3.22-.83,0,0,.74,1.88,1.64M248.1,306c-.39,1.93-.49,3.73-.23,4S248.62,309,249,307c.84-4.64,0-5.54-.88-1M674,305.39c2.81,1.87,5,2.36,3.47.77a9.69,9.69,0,0,0-3.47-1.72l-2.52-.73,2.52,1.68m57.74,5.66c0,3.06.2,4.18.44,2.48a22,22,0,0,0,0-5.57c-.23-1.37-.42,0-.42,3.09m-500.67,6.26c-.84,4.64,0,5.54.89,1,.38-1.92.48-3.73.22-4s-.75,1.08-1.11,3m405.12-3a30.57,30.57,0,0,1-3.81,1.13c-7.92,1.94-8.64,19.6-1.23,30.21.83,1.19.32-.79-1.15-4.4-4.54-11.22-4.47-15.84.27-17.29,17.19-5.27,52.53,11.87,70.77,34.33,1.29,1.59,6.06,7.16,10.59,12.37,7.64,8.79,13.08,15.54,35,43.41,4.57,5.81,11.72,15.33,15.88,21.17s7.79,10.86,8.05,11.17.67-.09.93-.88c.38-1.18.75-1.18,2,0,3.5,3.2-16.35-26-43-63.18-28.22-39.42-46.13-56.41-68.64-65.13-6-2.32-22.73-4.22-25.71-2.91m57.46,3.07c1.66,1.42,5.52,4.81,8.57,7.53s4.88,4.05,4.08,3c-1.57-2.14-11.66-10.86-14.16-12.25-.83-.46-.15.33,1.51,1.76m-82.52,2.26a37.26,37.26,0,0,0-.63,6.81c0,3.87-.22,4.19-2.28,3.55-1.78-.56-1.94-.46-.76.46,2.95,2.28,3.76,1.2,4.33-5.75.6-7.38.36-9.26-.66-5.07m119.51,3.91c-.17,6.18.05,7,2.08,8.13s2.07,1,.56-.31c-1.16-1-1.83-3.65-2.08-8.14l-.37-6.61-.19,6.93m-158.21-4.46a19.84,19.84,0,0,0,5.55,0c1.52-.25.27-.46-2.77-.46s-4.3.21-2.78.46m12.35,1.43a10.2,10.2,0,0,0,3.53,1c.95,0,.77-.35-.5-1a10.38,10.38,0,0,0-3.53-.95c-.95,0-.77.35.5.95m-340.1,1.67c-.08,1.23-.38,3.49-.67,5L243.5,330l1.08-2.73a10.93,10.93,0,0,0,.67-5c-.4-2.22-.41-2.22-.56-.05M281.36,325c-.86,1.84-1.33,3.34-1.06,3.34s1.21-1.5,2.07-3.34,1.34-3.34,1.06-3.34-1.21,1.5-2.07,3.34m274.92-.84c-11.61,9.37-25.42,22.37-25.42,23.93,0,.43,2.16-1.49,4.79-4.26a104,104,0,0,1,8.82-8.24c2.22-1.76,5.62-4.73,7.57-6.62s4.66-4.26,6.05-5.31,2.23-1.91,1.9-1.94-2,1.06-3.71,2.44m159.13,3.21c-.1,3.93-2.54,6.21-4.61,4.31-.87-.8-1.51-.9-1.51-.25,0,1.53,2.67,2.56,4.54,1.77,1.69-.72,3-5.09,2.19-7.32-.29-.79-.56-.12-.61,1.49M288.08,330c-1.69,4.1-1.37,5,.46,1.25.85-1.74,1.36-3.38,1.13-3.63s-.95.82-1.59,2.38m-60,2.61a35,35,0,0,0-.57,6.11c.06,1.31.51.12,1-2.64a24.85,24.85,0,0,0,.56-6.11c-.18-.6-.63.59-1,2.64m46.7,5.7c-2.23,4.9-3.83,8.91-3.55,8.91s2.33-4,4.56-8.91,3.83-8.91,3.55-8.91-2.33,4-4.56,8.91m78.87.83c-5,8.62-8.12,14.76-6.95,13.58.48-.48,6-10,12.41-21.37.25-.47.26-.84,0-.84s-2.71,3.88-5.46,8.63m214.2-2.83c-5.22,1.53-8.76,6.86-9.21,13.85-.19,3-.16,4.35.09,3.06,1.82-9.84,28.6-3,51.29,13.16,4.51,3.21,14.49,13.14,27.34,27.2,24.53,26.86,32,35.95,55,66.93,15.91,21.43,43,62.85,48.06,73.62.65,1.4,1.62,2.25,2.14,1.89s.71.05.41.91a3.2,3.2,0,0,0,1,3c1.85,1.69,2,.54.42-4.36-.76-2.42-1.4-3.15-1.92-2.23s-1.46,0-2.9-3c-1.17-2.39-2.57-5.1-3.12-6-2-3.27-9.07-16.28-13.27-24.23-2.34-4.44-4.74-8.08-5.32-8.08s-2-2.13-3.15-4.73c-7-16-50-77.59-72.14-103.46-2.42-2.84-7.7-9.18-11.73-14.09-17.61-21.52-48.25-37.78-63-33.45M443,337.5a107.94,107.94,0,0,0-7.39,9.19l-5.81,7.8,6.83-7.24c7.39-7.82,7.4-7.74.63,3.9-21.79,37.47-50,102.11-63,144.27-1.42,4.59-4.38,14.12-6.59,21.16C355.4,555.75,357,577,372.18,577c5.21,0,12.83-3.82,9.41-4.7-1.33-.35-3.45-2.32-4.7-4.38-6.72-11-5.85-23.47,4.28-61.33,2-7.66,4.16-15.68,4.69-17.83,4.42-17.79,18.09-58.16,28.49-84.11,6.72-16.76,8.51-21,14.93-34.9,3.77-8.16,9.11-18.74,11.88-23.5a86.84,86.84,0,0,0,5-9.39c0-1.15-1.5-.84-3.21.67m-201.81,6c-.37,3.47-.48,6.53-.23,6.81s.77-2.33,1.16-5.78.49-6.52.22-6.81-.78,2.31-1.15,5.78m481.23,2.74c0,1.49,4.91,10.84,6.13,11.67.5.34.62-.21.27-1.22-.54-1.56,0-1.48,3.5.5,6.17,3.48,6.2,2.93.18-3.79-3.18-3.56-4.85-6.16-4-6.21s.74-.42-.54-1c-2.87-1.36-5.55-1.32-5.55.08M637.24,355a83.88,83.88,0,0,0,6.83,8.64c1.17,1.12-.28-1.22-3.24-5.19a78.84,78.84,0,0,1-5.86-8.63c-.27-.78-.93-1.42-1.46-1.42s1.14,3,3.73,6.6m-370.89,1.82c-3.55,8.55-3.24,9.26.51,1.22,1.67-3.58,2.83-6.75,2.58-7s-1.65,2.33-3.09,5.81m-41.29.19a75.4,75.4,0,0,0-.5,10.33c.1,4.91.29,4.14.93-3.88.84-10.51.64-13.59-.43-6.45m296.09,1.7c-10.85,12.44-34.51,44.27-37.06,49.85-1.08,2.38.5.28,8.44-11.18,7.48-10.81,23.33-31.45,30.11-39.23,2.54-2.91,4.39-5.29,4.11-5.29s-2.79,2.63-5.6,5.85m218.38-5.34c0,.31,1.82,1.58,4,2.83s4,2,4,1.72-1.81-1.58-4-2.83-4-2-4-1.72m-461.75,3.54c-.56,1.62-.82,3.15-.59,3.4s.89-1.07,1.48-2.94c1.32-4.15.52-4.56-.89-.46m-38,1.52c0,2.15.21,3,.47,1.95a10.23,10.23,0,0,0,0-3.9c-.26-1.07-.47-.19-.47,1.95m532.58-1.3c3.36,3.26,22.59,19.12,23.18,19.12.4,0-4.61-4.51-11.13-10s-12.11-10-12.43-10-.14.42.38.93M537.47,363.9l-5.88,6.56,6.44-.56c9.3-.8,9-.55,7.37-6.62a49,49,0,0,0-1.75-5.61c-.17-.18-2.95,2.62-6.18,6.23m22.2-3.28c1,4,2.38,6.69,2.37,4.46a12.26,12.26,0,0,0-1.52-4.46L559,357.83l.67,2.79m-218.83,2.22c-.86,1.85-1.34,3.35-1.06,3.35s1.21-1.5,2.07-3.35,1.33-3.34,1.06-3.34-1.21,1.51-2.07,3.34m394.72,5.58c3.43,4.9,6.46,8.91,6.74,8.91.55,0,0-.92-6.8-11-2.5-3.71-4.91-6.76-5.36-6.78s2,4,5.42,8.88m-312.24-5.29a27.2,27.2,0,0,0-2.84,4.17c-.85,1.78-.62,1.53,3.46-3.62,1.34-1.68,2.2-3.06,1.93-3.06a9.75,9.75,0,0,0-2.55,2.51M275,364.56c-1.69,4.1-1.37,5,.46,1.25.85-1.74,1.36-3.37,1.12-3.62s-.94.81-1.58,2.37m371.81,2.05c0,.41,3.35,5.12,7.45,10.47,10.86,14.15,15.91,20,8.5,9.89-3.5-4.81-7.28-10.08-8.39-11.7-2.81-4.11-7.56-9.56-7.56-8.66M238.35,377.05c-.27,5.36-.2,15.76.15,23.12.56,11.68.64,10.46.69-9.75.06-25.3-.13-28.19-.84-13.37m33.1-2.88c-.91,2.57-1.49,4.85-1.29,5.08s1.12-1.69,2-4.24,1.5-4.83,1.29-5.08-1.14,1.68-2.05,4.24M565.24,374a36,36,0,0,0,5.31,7.52l3.06,3.09-3.21-4.19a51.5,51.5,0,0,1-4.77-7.52c-.85-1.83-1.8-3.33-2.1-3.33s.47,2,1.71,4.43m-307.39,2.83c-.69,1.68-1.05,3.28-.8,3.56.69.76,2.83-4.07,2.42-5.44-.2-.65-.93.2-1.62,1.88m74.93,2.77c-1.41,3.06-2.33,5.56-2.06,5.56s1.66-2.5,3.06-5.56,2.33-5.57,2.05-5.57-1.65,2.5-3.05,5.57m-109,3.9c0,4.9.18,6.76.39,4.14a61.52,61.52,0,0,0,0-8.91c-.21-2.28-.39-.14-.38,4.77m549.05-6.88c0,.31,1.81,2.15,4,4.09s4,3.28,4,3-1.82-2.14-4-4.08-4-3.28-4-3m24.19.93c0,.23,6.69,7.39,14.87,15.92s12.6,12.86,9.83,9.63c-5.45-6.33-24.7-26.25-24.7-25.55m-529.13,6.62c-.61,2-.95,3.78-.73,4s.9-1.18,1.52-3.15,1-3.77.74-4-.9,1.18-1.53,3.14m140.82,2.39c-3.58,6-6.61,11.91-5.5,10.79.53-.53,6.68-10.86,9.09-15.25,2.21-4-.57-.57-3.59,4.46m-153.87-1.9c-1.68,4.1-1.36,5,.46,1.24.85-1.74,1.37-3.37,1.13-3.62s-.94.81-1.59,2.38m496.86,7.75c3.43,5.51,7.78,12.65,9.68,15.87s3.68,5.85,4,5.85c1,0-12.87-22.74-17.29-28.41-1.43-1.83.2,1.17,3.63,6.69m-216-5.5c-3.72,2.24-5.48,6.41-6,14.41-.27,3.68-.29,5.59-.06,4.26,2-11.33,25.61-3.12,39.82,13.83l19.17,22.57c34.31,40.38,70.14,91.64,85.91,122.88,2.1,4.17,4,7.39,4.21,7.14.71-.78-16.4-34.7-23.23-46-1.06-1.77-4.88-8.23-8.46-14.36-11.89-20.28-33.37-53.14-43-65.71-10.64-13.93-19-24.57-20.13-25.64a26.28,26.28,0,0,1-2.9-3.9c-13-21-35.27-35.46-45.3-29.45m50.22,14.41c7,8.88,13,16.15,13.21,16.15,1,0-24.08-32.14-25.16-32.23-.44,0,5,7.19,12,16.08m-258.48-10c-1.69,4.1-1.37,5,.46,1.25.84-1.74,1.36-3.37,1.12-3.63s-.94.82-1.58,2.38m462,.11c8.93,9.92,26.18,27.54,20.16,20.61-3.88-4.47-10.69-11.68-15.12-16s-6.7-6.41-5-4.57m-537.8,1.52c-.71,1.88-1,3.67-.76,4s1-1,1.65-3,1-3.77.76-4-.95,1.13-1.65,3m13.26-.52c-1.69,4.1-1.36,5,.46,1.25.86-1.74,1.36-3.37,1.14-3.62s-.95.81-1.6,2.37m246.39,4.06c-2,2.56-6.89,9.64-10.91,15.74s-9,13.64-11.09,16.76-3.78,6.25-3.78,7a4.8,4.8,0,0,1-1.59,2.74c-.88.8-2.7,3.88-4.05,6.82s-2.9,5.37-3.45,5.37-1.92,2.2-3.07,4.9a27.68,27.68,0,0,1-4,6.86,6.62,6.62,0,0,0-1.95,3c0,.58-4.16,9.15-9.25,19s-12.72,25-17,33.62c-21.18,42.88-41.15,67.82-58,72.5-4.92,1.37-2.05,2.36,13.46,4.69,26.55,4,45.75,4.93,103.57,5.19,59,.27,65.55.62,76.62,4.13,8.24,2.62,21.89,10.16,25.4,14,5.31,5.87,3-2.66-8.26-30.4-9.71-23.93-22.58-50.26-44.38-90.8-28.67-53.31-33.88-67-34.1-89.8-.08-8.81-.23-16-.33-16s-1.79,2.1-3.78,4.66m-287.58,2c0,3.37.19,4.75.42,3.07a27.32,27.32,0,0,0,0-6.13c-.23-1.68-.42-.31-.42,3.06m449.81,4.18a60.7,60.7,0,0,0,5.25,7c.72,0-6-9.94-8.11-12-1.1-1.07.19,1.18,2.86,5m-277.16,6.58c-1.44,2.85-2.46,5.36-2.26,5.57s1.59-2.11,3.1-5.18,2.53-5.57,2.27-5.57-1.67,2.33-3.11,5.18M224.58,412.2c-.16,5-.41,5.45-3.7,7-4.28,2-4.7,3.05-.56,1.45s5.27-3.51,4.83-9l-.39-4.82-.18,5.35m93.74.27c-1.69,4.1-1.36,5,.46,1.24.85-1.73,1.36-3.37,1.13-3.62s-.94.81-1.59,2.38m512.37,2.74q10.3,12.82,4.87,5a69.88,69.88,0,0,0-6.45-7.8c-1.94-1.94-1.28-.77,1.58,2.79m-572.9-1c-.63,2-1,3.77-.74,4s.9-1.18,1.52-3.15.95-3.77.73-4-.89,1.18-1.51,3.15m220.93,2.38c-2,2.81-2.64,4.54-1.45,3.73s3.58-5.12,2.84-5.12c-.23,0-.86.62-1.39,1.39m51.24.83a14.18,14.18,0,0,0,1.4,5.58c1.83,3.52,1.84,2.9,0-3.35-1-3.55-1.43-4.2-1.45-2.23m154.89,1.68c1.63,2.44,6.5,10.22,10.83,17.26,7.3,11.9,11.1,17.5,9,13.37-2.3-4.61-16.91-27.79-19.67-31.19l-3.16-3.9,3,4.46m-76.44,12.25c9.17,13.13,12.34,17.31,10.63,14s-16.48-24.19-18.2-25.75c-1-.88,2.43,4.41,7.57,11.76m162.08-7.24c1.12,2.14,3.28,6.28,4.79,9.19s3,5.29,3.25,5.29c.8,0-6.76-14.87-8.5-16.71-1-1.12-.9-.37.46,2.23m45.65-3a26.57,26.57,0,0,0,3.28,3.62l3.27,3.28-3-3.62c-2.75-3.38-3.59-4.13-3.59-3.28M471.7,428.29c-4.86,7.77-5.63,9.2-4.94,9.2.29,0,2.24-2.89,4.34-6.41,5.43-9.14,5.47-9.19,5-9.19-.23,0-2.22,2.88-4.42,6.4M388,426.07c-.34,1.07-.82,2.45-1,3.06s.29.14,1.16-1.05c1.59-2.16,2.07-4,1.06-4-.3,0-.83.88-1.17,1.95m145.47,4.17a23.44,23.44,0,0,0,1.54,5c.57,1.07.65.47.24-1.67a23.45,23.45,0,0,0-1.55-5c-.56-1.08-.65-.48-.23,1.66M200,430.33c-3.77,2.25-3.54,3.2.25,1,1.67-.95,3-2,3-2.25,0-.72-.11-.68-3.28,1.22m111.09,1.19c-.56,1.61-.83,3.14-.6,3.39s.9-1.07,1.49-2.94c1.31-4.15.52-4.56-.89-.45m514.17,1a15.34,15.34,0,0,0,2.74,2.78c.83,0-3.32-5.5-4.18-5.54-.51,0,.14,1.22,1.44,2.76M384.73,433c-1.28,2.63-1.34,3.74-.16,2.94.89-.61,2.27-5.1,1.57-5.1a5.8,5.8,0,0,0-1.41,2.16m460.14,1.19c4.77,6.17,4.84,6.24,3.75,3.89a22.12,22.12,0,0,0-3.91-5l-2.86-2.78,3,3.9M251.19,435.9c-.37,1.63-.48,3.18-.24,3.44s.74-.86,1.11-2.49.48-3.18.24-3.45-.74.86-1.11,2.5M308,439.31c-.55,1.62-.82,3.15-.59,3.4s.9-1.07,1.49-2.94c1.31-4.15.52-4.56-.9-.46m229,1.48a10.92,10.92,0,0,0,1.93,4c.48.33.39-.93-.19-2.79a10.89,10.89,0,0,0-1.94-4c-.48-.32-.39.93.2,2.79m292.82-2.12c2,4,7.81,12.14,8.26,11.65.26-.28-1.25-2.92-3.37-5.84-4.71-6.52-6.1-8.18-4.89-5.81M183.33,441c-3.44,2.43-4.55,4.06-1.51,2.22,2.31-1.41,5.93-4.5,5.29-4.53a19.49,19.49,0,0,0-3.78,2.31m197.65.7c-.35,1.08-.82,2.46-1.06,3.07s.29.14,1.17-1.05c1.58-2.16,2.06-4,1.05-4-.3,0-.82.88-1.16,2m400.1,2.51c1.4,2.76,4.23,8.7,6.27,13.21s3.94,7.94,4.21,7.65c.55-.61-10.29-23-12-24.76-.6-.61.07,1.14,1.48,3.9m-475.92,3.47c-.62,2-1,3.77-.73,4s.9-1.18,1.52-3.15.95-3.77.74-4-.9,1.18-1.53,3.15m547.27-1.14c0,.87,1,2.28,2.27,3.13l2.27,1.54-2-2.66c-1.1-1.47-2.12-2.88-2.26-3.13s-.27.25-.27,1.12M377.8,449.23c-1.69,4.1-1.37,5,.46,1.25.85-1.74,1.36-3.37,1.13-3.63s-.95.82-1.59,2.38m162.13-2.45c0,.84,6,12.37,6,11.56,0-1.22-5-11.94-5.54-11.94a.45.45,0,0,0-.49.38M248.23,451a47.36,47.36,0,0,0-.5,8.12c.09,3.4.34,2.57.94-3.18.86-8.21.63-10.84-.44-4.94m372.46-2.86c.63,1.85,17.15,28.39,17.67,28.39s0-1.15-7.56-13.37c-7-11.28-10.74-16.87-10.11-15m-164.24,5.82c-1.84,2.74-3.2,5.12-3,5.31s1.85-1.89,3.73-4.6,3.24-5.11,3-5.31-1.89,1.88-3.73,4.6m249.72.09a9.4,9.4,0,0,0,2.22,3.05c.79.54.78.11,0-1.54a9.61,9.61,0,0,0-2.22-3.06c-.79-.54-.79-.1,0,1.55m134.19.2c1.63,3.56,11.18,18.94,11.76,18.94S852,471.79,846,462c-5.66-9.32-7.58-12-5.67-7.79m-539.23,5.69c-.62,2-.95,3.78-.73,4s.9-1.17,1.51-3.14,1-3.78.74-4-.9,1.17-1.52,3.14m246.36,3.22c.86,1.84,1.79,3.34,2.07,3.34s-.2-1.5-1.06-3.34-1.79-3.34-2.07-3.34.2,1.5,1.06,3.34m-176.32,2.32c-.93,2.55-1.5,4.85-1.27,5.11s1.18-1.63,2.11-4.18,1.49-4.85,1.25-5.11-1.17,1.63-2.09,4.18m79.55-.09c-.86,1.84-1.34,3.34-1.06,3.34s1.21-1.5,2.07-3.34,1.33-3.35,1-3.35-1.2,1.51-2.06,3.35M298.11,468.8c-.62,2-.95,3.78-.74,4s.9-1.17,1.52-3.14.95-3.78.74-4-.9,1.17-1.52,3.14m493.84-2a53.78,53.78,0,0,0,2.37,6.62c1.31,3.24,2.68,6.83,3,8s.94,1.82,1.27,1.45-.36-2.84-1.53-5.52a33.67,33.67,0,0,1-2.17-5.91c0-1.19-3-5.76-3-4.63m-75.1,6.38c.86,1.83,1.79,3.34,2.06,3.34s-.19-1.51-1-3.34-1.8-3.35-2.07-3.35.2,1.51,1.06,3.35M367.5,475c-.56,1.62-.82,3.15-.59,3.4s.89-1.07,1.48-2.94c1.31-4.16.52-4.56-.89-.46M790,474c0,.8.94,3.05,2.19,5s2.38,3.78,2.52,4,.5.19.8-.14-.54-2.05-1.87-3.81a25.08,25.08,0,0,1-3-4.87c-.38-1.11-.6-1.18-.66-.24m80.06,2.47c.87,1.83,1.79,3.34,2.07,3.34s-.2-1.51-1.06-3.34-1.79-3.34-2.07-3.34.2,1.5,1.06,3.34m-17.64-1.78c0,.87,12.28,24.06,12.74,24.06s-1.92-5-8.64-18.1c-2.9-5.68-4.1-7.41-4.1-6m-604.77,5.77a31.78,31.78,0,0,0,.9,7.7c.49,1.31.61-.76.3-5-.65-8.76-1.3-10.22-1.2-2.69M295,478.7c-.7,1.88-1,3.68-.76,4s1-1,1.66-3,1-3.77.75-4-.94,1.13-1.65,3m344.67.92a9.46,9.46,0,0,0,2.22,3.06c.78.54.78.1,0-1.55a9.43,9.43,0,0,0-2.21-3.05c-.8-.54-.79-.11,0,1.54M722,483.21c1.46,3.09,2.86,5.38,3.12,5.1.48-.53-4.62-10.72-5.36-10.72-.23,0,.77,2.53,2.24,5.62m-357.32-.56c-1.68,4.1-1.36,5,.46,1.25.85-1.74,1.37-3.37,1.13-3.63s-.94.82-1.59,2.38m431.34,2c-.09,1.81,6.42,14.37,6.79,13.14s-2.58-13.54-3.31-13.54c-.25,0-.22,1.64.08,3.63l.53,3.62-2-3.9c-1.12-2.14-2.05-3.47-2.07-2.95M437.5,490.44c-.92,1.55-1.49,3-1.26,3.27s1.17-1,2.1-2.82c2.08-4,1.47-4.34-.84-.45m-75.86.71a20.15,20.15,0,0,1-.79,3.9c-.5,1.57-.37,1.75.59.77a5.11,5.11,0,0,0,.79-3.9c-.25-1.44-.51-1.8-.59-.77M729,497.76c2,4.34,4,9.17,4.58,10.73s1.22,2.56,1.51,2.24c.58-.64-8.33-20.88-9.18-20.88-.28,0,1.12,3.56,3.09,7.91M565.88,497c1.49,2.73,2.88,4.78,3.08,4.56.54-.6-4.2-9.5-5.06-9.51-.4,0,.49,2.22,2,4.95m-443.34,1.45-3.47,4.18,3.77-3.84c3.52-3.58,4.25-4.52,3.48-4.52a35.92,35.92,0,0,0-3.78,4.18m527.17-1.39c1.7,3.63,3.1,5.65,3.09,4.45a11.25,11.25,0,0,0-2.07-3.9c-1.37-1.84-1.71-2-1-.55m-361.62,2.72c-.59,1.88-.86,3.41-.6,3.41.68,0,2.58-5.79,2.08-6.35-.23-.25-.89,1.08-1.48,2.94m577.54.62c0,.61,1.55,4.37,3.44,8.36s3.43,6.73,3.43,6.12-1.55-4.37-3.43-8.35-3.44-6.74-3.44-6.13m-436.08,6.13c-1.41,3.06-2.33,5.57-2.05,5.57s1.65-2.51,3.06-5.57,2.32-5.57,2.05-5.57-1.66,2.5-3.06,5.57m453.2-3.9a13.15,13.15,0,0,0,1.44,3.9c.79,1.53,1.44,2.28,1.44,1.67a13.15,13.15,0,0,0-1.44-3.9c-.79-1.54-1.44-2.28-1.44-1.67m-620,7.52c0,7.14-.84,7.84-4,3.34-1.37-1.95-1.79-2.21-1.14-.73,4.45,10.23,15.16,10.63,23.29.87,3.5-4.21,3.49-4.21-1.24.46-6.7,6.6-8.2,6-14.23-5.33l-2.66-5v6.41m-148.82,0c-3,3.75-4.72,6.4-4.2,6.4.25,0,1.91-2,3.7-4.45,3.46-4.76,3.81-6.12.5-1.95m241.29-.63a23.73,23.73,0,0,0-1.06,4.25c-.6,3.32-.6,3.32.91-.41,1.32-3.25,1.44-6.36.15-3.84m381.49,6c.59,1.86,1.25,3.19,1.48,2.94.5-.56-1.4-6.34-2.08-6.34-.26,0,0,1.53.6,3.4m-312.3,1.33c-.92,2-2.34,4.88-3.15,6.41-1.41,2.67-1.4,2.69.23.55,2-2.6,5.84-10.58,5.11-10.58-.27,0-1.26,1.63-2.19,3.62m152.35.84c.86,1.83,1.79,3.34,2.07,3.34s-.2-1.51-1.07-3.34-1.78-3.35-2.06-3.35.2,1.51,1.06,3.35m297,1.95c1.14,3.78,1.9,4.65,1.9,2.16a8.27,8.27,0,0,0-1.5-3.62c-1.37-2-1.41-1.86-.4,1.46m15.58-.84a22,22,0,0,0,1.61,4.46c.65,1.16.73.82.26-1.11a21.23,21.23,0,0,0-1.61-4.46c-.65-1.16-.73-.82-.26,1.11m-537.77,2.9c-.58,2.32-.88,4.42-.65,4.66s.87-1.45,1.45-3.77.88-4.42.65-4.67-.87,1.46-1.45,3.78m312.09,3.22c.92,2.13,1.85,3.68,2.07,3.44.46-.51-2.6-7.33-3.29-7.33-.25,0,.29,1.75,1.22,3.89m76.42.57c1.19,4.49,2.64,6.61,1.9,2.78a12.5,12.5,0,0,0-1.64-4.46c-.66-.73-.74-.16-.26,1.68m136.75,2.28c.59,1.87,1.27,3.19,1.49,2.94.5-.55-1.4-6.34-2.08-6.34-.26,0,0,1.53.59,3.4m-293.51,2.59c0,.75,5.2,10.72,5.6,10.72.59,0-.75-3.52-2.87-7.52-1.71-3.23-2.73-4.42-2.73-3.2M347.9,533.29c-.39,1.32-.46,2.65-.19,3s.82-.53,1.19-1.84.47-2.65.19-2.95-.81.51-1.19,1.83m65.71,3.07c-3.49,6.19-4.14,7.86-1.9,4.81,2.58-3.51,5.51-9,4.81-9-.31,0-1.62,1.88-2.91,4.18m465.62-2c1.06,4.3,2.34,7.79,2.85,7.79.67,0-1.05-6.19-2.38-8.55-1-1.75-1.06-1.64-.47.76m-208.77,6.13c.93,2.44,2.39,6.35,3.25,8.68s1.75,4,2,3.74c.56-.62-4.57-14.28-5.91-15.77-.56-.61-.25.89.67,3.35m225.48-3.35a25.79,25.79,0,0,0,1.35,5c.75,2.15,1.37,3.15,1.39,2.24a17.1,17.1,0,0,0-1.35-5c-.76-1.84-1.39-2.84-1.39-2.23m-551.46,7.37c-1.47,4.65-.77,5.42.89,1,.71-1.88,1.05-3.67.76-4s-1,1-1.65,3m247.61,4.05c3.53,8.54,6.31,13.65,7.42,13.65.5,0,.93,1.13,1,2.51s1.14,4.76,2.48,7.52c2.92,6,3.36,5.07.5-1.12a21.6,21.6,0,0,1-2-6.58,4,4,0,0,0-1.4-3.11c-.76-.49-3.26-5-5.55-10.08-4.77-10.51-6.35-12.36-2.39-2.79m291.1-2c1.19,4.5,2.63,6.62,1.89,2.79a12.31,12.31,0,0,0-1.64-4.46c-.65-.73-.74-.16-.25,1.67M88.48,556.18c-1.69,4.1-1.37,5,.46,1.25.86-1.74,1.36-3.38,1.13-3.63s-.94.81-1.59,2.38m587.67-.61a17.18,17.18,0,0,0,1.35,5c.76,1.84,1.4,2.59,1.42,1.67a17.06,17.06,0,0,0-1.35-5c-.76-1.84-1.4-2.59-1.42-1.68m210.26,2.24a14.25,14.25,0,0,0,1.44,5c1.35,1.63,1-1.71-.62-5.51l-1.39-3.35.57,3.91m-488.62,2.78c-2.44,2.76-4.22,5-3.94,5s2.5-2.25,4.95-5,4.23-5,3.95-5-2.5,2.26-5,5m-62.34,2.5c-4,5.86-4,6-.65,1.95s6.09-8.35,5.31-8.35a65.63,65.63,0,0,0-4.66,6.4m568,.84c.83,4.09,1.41,5,1.39,2.13a8.78,8.78,0,0,0-1-3.8c-.75-1.22-.84-.77-.35,1.67m-224.37.66a68.41,68.41,0,0,0,2,7.14c2.31,7.42,2.63,10.66.51,5.29-.78-2-1.67-3.62-2-3.62s.14,1.88,1,4.18c1.6,4.26,5.51,9.51,5.51,7.4,0-2.66-6.91-22.74-7-20.39m210.74,4.91a8.66,8.66,0,0,0,.92,3.9c1.29,2.21,1.29-.57,0-3.9l-.87-2.23,0,2.23M81.38,575.75c-.63,2-1,3.78-.74,4s.9-1.17,1.52-3.14,1-3.78.73-4-.9,1.17-1.51,3.14m261.69,3-3.72,4.21,6.79,1.92c9.38,2.66,10,2.52,6.79-1.65a28.66,28.66,0,0,1-3.6-6.13c-1.19-3.46-1.92-3.27-6.26,1.65m564,.8a21.76,21.76,0,0,0,.81,5c.63,2.2.81,2.32.81.56a22.13,22.13,0,0,0-.81-5c-.64-2.21-.81-2.33-.81-.56m-812.59,2.9c-.62,2-1,3.78-.74,4s.9-1.18,1.52-3.15,1-3.77.74-4-.9,1.17-1.52,3.14m512-1.73a13.66,13.66,0,0,0,1.56,3.84l1.51,2.78-.66-2.78c-.68-2.91-2.47-5.76-2.41-3.84m286.43,1.61c.05,2.9,1.63,7.65,1.67,5a14.27,14.27,0,0,0-.83-4.45c-.54-1.37-.86-1.58-.84-.56m-282.27,9c.59,1.87,1.27,3.2,1.49,2.94.5-.55-1.4-6.34-2.08-6.34-.26,0,0,1.53.59,3.4m298.92,1.59a65.32,65.32,0,0,0,1.43,8.36c.52,1.76.6.75.21-2.74a64.42,64.42,0,0,0-1.44-8.36c-.51-1.76-.59-.74-.2,2.74M91.44,593c-.58,2.32-.87,4.42-.65,4.66s.88-1.45,1.46-3.77.87-4.42.65-4.67S92,590.68,91.44,593M613,597.91a11.77,11.77,0,0,0,1.73,3.9c.68.74.77.18.28-1.68a12,12,0,0,0-1.73-3.9c-.68-.73-.77-.18-.28,1.68M74.83,600.28c-.84,4.64,0,5.54.89,1,.38-1.93.48-3.73.22-4s-.75,1.09-1.11,3m821.67,2.64a67.08,67.08,0,0,0,1.41,8.36c.46,1.62.54.23.19-3.34a50.16,50.16,0,0,0-1.4-8.36c-.46-1.27-.54.17-.2,3.34M89,603.12c-1.31,7.3-1.87,12-1.36,11.5.73-.75,2.85-13.62,2.33-14.19-.22-.25-.66,1-1,2.69m527.18,2.59a55,55,0,0,0,2,6.13l1.34,3.34-.59-3.34a26.89,26.89,0,0,0-2-6.13l-1.41-2.79.67,2.79M71.82,617a40.32,40.32,0,0,0-.52,7c.08,2.07.48.81,1-3.13.92-7,.59-9.77-.48-3.87m841.34,1.57a96.86,96.86,0,0,0,.73,10.58c.65,5.3.77,5.52.8,1.67a96.62,96.62,0,0,0-.72-10.58c-.67-5.3-.78-5.52-.81-1.67m-293-.56a22.07,22.07,0,0,0,1.6,4.46c.65,1.16.73.82.26-1.12a22,22,0,0,0-1.6-4.45c-.65-1.17-.73-.82-.26,1.11M899,622.42c0,2.14.2,3,.46,2a10.29,10.29,0,0,0,0-3.91c-.26-1.07-.46-.19-.46,2m-814.1,8.07c-.81,7.44-.69,34.19.19,41.5.37,3.06.67-6.33.67-20.89,0-29.37,0-28.75-.86-20.61M623.17,628a21.7,21.7,0,0,0,1.61,4.45c.65,1.16.73.82.26-1.11a21.44,21.44,0,0,0-1.61-4.46c-.65-1.16-.73-.82-.26,1.12m277.15,30.07c0,18.43.26,26.86.65,21.17.83-11.94.82-35.08,0-44.56-.36-4-.64,6.55-.64,23.39M70.45,633.56c0,2.76.19,3.88.43,2.51a16.89,16.89,0,0,0,0-5c-.24-1.38-.43-.25-.43,2.51m519.46-3.15c-.23.81-.69,2.87-1,4.57-2.15,10.82-14.31,18.27-42.39,26-7.76,2.13-15.71,4.35-17.65,4.93-28.28,8.58-95.65,19.68-122.47,20.18-14.55.27-12.94,1.83,2,2,35.61.3,87.32-4.67,121.47-11.66,56.1-11.48,69.59-18.1,69.55-34.11,0-4.78-8.49-15.35-9.49-11.83m36.86,9.37a23.36,23.36,0,0,0,1.59,4.92c.89.95-.89-7.19-1.81-8.27-.47-.55-.38,1,.22,3.35M915.34,657c0,10.11.16,14.25.34,9.19s.19-13.32,0-18.38-.34-.92-.34,9.19m-285.06-5.57a37.92,37.92,0,0,0,1.52,6.13c.61,1.53.68,1,.25-1.67a37.8,37.8,0,0,0-1.53-6.13c-.6-1.53-.68-1-.24,1.67m-17.77-.59c0,1-1,3.81-2.26,6.24-2.58,5-2.08,5.88,4.06,7.15,4.46.93,4.39,1.16,2.32-7.18-1.65-6.66-4.12-10.39-4.12-6.21M70.42,666.42c0,2.45.22,3.32.46,1.94a13.3,13.3,0,0,0,0-4.46c-.25-1.07-.45.07-.45,2.52m562.78-1.08c2.15,12.55,2.45,13.53,1.9,6.09-.31-4-1-7.72-1.5-8.32s-.76.13-.4,2.23M71.3,677.1a42.41,42.41,0,0,0,.94,7.15c.54,2.19.63,1,.26-3.35-.62-7.36-1.39-9.8-1.2-3.8m842.79,8.81c-.1,2.76-.4,7-.66,9.48l-.48,4.45,1-4.45a38.28,38.28,0,0,0,.67-9.48l-.36-5-.2,5m-298.55-1.15c0,8.21-27.2,37.92-34.72,37.92a72.66,72.66,0,0,0-6.82,3.21c-10.89,5.51-25.84,10.6-30.29,10.31-1.54-.11-4.55.81-6.72,2-4,2.26-5.66,2.73-31.33,8.89-32.54,7.8-75.4,14.71-104.25,16.8-21.27,1.54-19.75,2.66,2.43,1.78,38.56-1.53,64.73-4.21,104.84-10.74,28.81-4.69,66.15-14,73.52-18.32,1.43-.83,5.54-3.12,9.14-5.09,7.06-3.86,15.37-10.15,17.4-13.17a19,19,0,0,1,4-3.83c8.83-6.23,12.47-19.51,7.54-27.55-2.77-4.52-4.78-5.47-4.78-2.24M636.47,687a62.79,62.79,0,0,1-.26,17.83c-.43,2.07-.32,2.36.42,1.12,1.88-3.13,2.2-12.61.63-18.39L635.75,682l.72,5m-266.9-.24c0,1.57,1.83,2.18,8.66,2.85,3.27.33,4.82.32,3.44,0a10,10,0,0,1-3.53-1.5c-1.68-1.51-8.57-2.59-8.57-1.35M87.48,688.7c0,2.38,2.58,11.91,2.73,10a41.78,41.78,0,0,0-1.32-6.68c-.77-3.07-1.41-4.58-1.41-3.35m-13.07,7.8a21.92,21.92,0,0,0,.81,5c.63,2.2.8,2.31.8.55a22.17,22.17,0,0,0-.8-5c-.65-2.21-.81-2.33-.81-.56m822,15.15c-.36,2.55-.47,4.86-.23,5.13s.75-1.59,1.14-4.13.5-4.83.24-5.12-.77,1.57-1.15,4.12m-262.7-1.22c-.64,1.33-.94,2.66-.66,3s1-.53,1.67-1.86.94-2.67.67-3-1,.53-1.68,1.87M77.84,712.1c.83,4.09,1.41,5,1.39,2.13a8.78,8.78,0,0,0-1-3.8c-.75-1.22-.84-.77-.35,1.67m832.61,3.39c-.39,2.84-.5,5.39-.25,5.67s.77-1.82,1.16-4.66.5-5.39.24-5.67-.77,1.82-1.15,4.66m-285.84,8.23A112.57,112.57,0,0,1,610.75,737c-7.11,5.29-7.45,6-3.48,7.85,12,5.51,16,18.13,11.65,36.86-.21.91.37-.09,1.3-2.24,1-2.36,1.71-6.76,1.73-11.2.07-10.83-2.9-15.81-14.79-24.8-1.65-1.25-1.16-1.89,5.05-6.58,7.65-5.77,14.73-12.91,18.27-18.41,3.26-5,2.7-4.56-5.87,5.22M94.94,719.34a22.9,22.9,0,0,0,1.61,4.46c.65,1.16.73.82.26-1.12a21.44,21.44,0,0,0-1.61-4.46c-.65-1.16-.72-.82-.26,1.12m-14.11,3.34a22,22,0,0,0,1.61,4.46c.65,1.16.73.82.26-1.12a22,22,0,0,0-1.61-4.46c-.65-1.16-.73-.82-.26,1.12m812.43,5.57c-.38,1.93-.49,3.73-.23,4s.76-1.09,1.11-3c.84-4.64,0-5.54-.88-1m13.23,6.82c-.84,4.65,0,5.55.88,1,.39-1.93.49-3.73.23-4s-.76,1.09-1.11,3m-16.56,7.33c-1.49,5.37-.76,6.17.81.89.66-2.23,1-4.27.77-4.53s-1,1.37-1.58,3.64M87.38,741.06a13.15,13.15,0,0,0,1.44,3.9c.8,1.53,1.44,2.29,1.44,1.67a13,13,0,0,0-1.44-3.9c-.79-1.53-1.44-2.28-1.44-1.67m798.87,12.71c-1,2.4-1.55,5-1.25,5.85.36,1,.57.82.62-.51a18.62,18.62,0,0,1,1.67-5.4c.87-1.86,1.39-3.6,1.16-3.85s-1.22,1.5-2.2,3.91M112,759.45c.86,1.83,1.79,3.33,2.06,3.33s-.19-1.5-1-3.33-1.8-3.35-2.07-3.35.2,1.5,1.06,3.35m787.92.12c-.63,2-1,3.77-.74,4s.9-1.18,1.52-3.14.95-3.78.73-4-.9,1.18-1.51,3.15M599.2,769.41c-7.49,17.09-27.09,33.81-49.69,42.4-26.42,10.05-99.88,25-147.18,30-8.8.92-7.66,1,9.07.58a468.71,468.71,0,0,0,59-5.41c5.83-.88,14.45-2.16,19.16-2.85,60.64-8.9,88.69-19.83,106.37-41.48,8.9-10.9,13.27-25.81,8.8-30.06-1.63-1.55-2-1.05-5.5,6.84M897,768.3c-.59,1.87-.86,3.4-.6,3.4.68,0,2.59-5.79,2.09-6.34-.23-.25-.91,1.07-1.49,2.94m-796.68.61a28.94,28.94,0,0,0,2.64,4.46l1.64,2.22-1-2.22a29.68,29.68,0,0,0-2.63-4.46l-1.65-2.23,1,2.23m20.8,6.13c1.37,2.73,13.55,19.89,14.67,20.65.57.39-2.43-4.22-6.68-10.25-8.15-11.57-9.33-13.1-8-10.4m772.63,1.83c-.56,1.61-.82,3.14-.59,3.39s.89-1.06,1.48-2.94c1.32-4.15.52-4.56-.89-.45m-18.39,6.56c-1.49,3.35-2.49,6.09-2.23,6.09.68,0,5.77-11.27,5.32-11.78-.21-.22-1.6,2.33-3.09,5.69m-260.79,8c0,2.43-13.34,18.21-20.09,23.76-6.37,5.24-9.28,8.2-5.87,6,9.53-6.19,28.64-27.91,26.57-30.2-.33-.37-.61-.16-.61.46m254.54,4.81c-.86,1.83-1.34,3.34-1.06,3.34s1.2-1.51,2.06-3.34,1.34-3.35,1.07-3.35-1.21,1.51-2.07,3.35m14.11,4.45c-.86,1.84-1.34,3.35-1.06,3.35s1.21-1.51,2.07-3.35,1.34-3.34,1.06-3.34-1.21,1.5-2.07,3.34m-735.89,8.92c4.41,4.9,8.24,8.91,8.52,8.91s-3.1-4-7.51-8.91-8.25-8.92-8.52-8.92,3.1,4,7.51,8.92m711.94,3.61a181.42,181.42,0,0,1-10.77,15.5c-2.8,3.47-5.1,6.64-5.1,7,0,2.08,14.57-18.15,20.64-28.65,4-6.9.5-2.42-4.77,6.12m20.48-5.52c-.76,1.36-2,3.59-2.85,5s-1.25,2.5-1,2.5c.71,0,6-9,5.57-9.51-.2-.23-1,.69-1.74,2m-742.5,13c6.08,6.75,11.28,12.26,11.56,12.26s-4.47-5.51-10.55-12.26-11.28-12.25-11.56-12.25,4.47,5.51,10.55,12.25m20.21-.27c.53.46,2.77,2.59,5,4.73l4,3.9-4-4.73c-2.19-2.61-4.44-4.74-5-4.74s-.65.32-.05.84M580,825.24c-5.41,3.09-8,5.32-4,3.5,3.38-1.55,10.33-5.85,10.33-6.38,0-.73.18-.81-6.3,2.88m-413,3.64c0,.31,1.81,2.15,4,4.09s4,3.28,4,3-1.81-2.14-4-4.08-4-3.28-4-3M858.68,840c-6.84,9.24-22,25.46-30,32.18-6.66,5.56-7.27,7-.79,1.85,7-5.5,26.74-26.71,32.58-34.93,7-9.8,5.64-9.13-1.77.9M561.1,834.33c-1.94.64-3,1.36-2.38,1.62s2.68-.27,4.54-1.16c3.94-1.91,2.9-2.12-2.16-.46m-382.56,4.73c3.05,3,6.55,5.48,6.55,4.72a32.5,32.5,0,0,0-4.79-4c-3.62-2.74-4.05-2.91-1.76-.69m373.49.51c0,3,5.61,8.31,18.4,17.32,4.47,3.16,3.18,1.19-1.52-2.3-11.35-8.44-16-13-15.55-15.07.28-1.15.09-2.1-.42-2.1s-.91,1-.91,2.15m281.25,6.88a218.23,218.23,0,0,1-16.88,15.62c-9.67,7.79-11.26,10.07-2.09,3,8.07-6.23,30-28,27.85-27.59-.17,0-4.17,4.07-8.88,9M527.33,842.8c-2.16,2.27-15.3,12.45-16.08,12.45a49.81,49.81,0,0,0-5.8,3.54c-2.93,1.94-9.65,5.92-14.92,8.84-9.44,5.25-9.52,5.32-5.54,5.42,3.77.09,3.91.2,2.08,1.73-1.08.9-1.72,1.64-1.41,1.64,1.37,0,27.41-14.8,34.62-19.68C537,845.4,538,844.65,537.68,843c-.45-2.65-7.87-2.79-10.35-.19m-340.55,2.51c1.25,1.68,7.39,5.94,7.39,5.14,0-.26-1.93-1.88-4.29-3.6s-3.75-2.41-3.1-1.54m10.41,6.88c0,.71,7.8,6.4,8.77,6.4.41,0-.14-.67-1.24-1.5-4.81-3.62-7.53-5.4-7.53-4.9m340.63,11c-6.29,4.46-11,8.64-6,5.32,5.43-3.6,13.1-9.17,13.1-9.52,0-.76-.85-.26-7.15,4.2M548,859.07c0,.58,10.83,9.16,15.62,12.38,5.21,3.5,1.37,0-7.31-6.56-4.57-3.49-8.31-6.11-8.31-5.82m26.65.52a8.87,8.87,0,0,0,2.76,2.45c1.49.88,1.89.89,1.4,0A9,9,0,0,0,576,859.6c-1.49-.88-1.88-.89-1.39,0m-390.57,2.77c0,.59,14.65,10.45,19.91,13.4,6.13,3.42,3.31.88-4-3.65-4-2.47-9.23-5.81-11.59-7.4s-4.29-2.66-4.29-2.35m396.17,1.19c0,.68,16.62,10.64,17.75,10.64.5,0-3.14-2.51-8.08-5.58-9.15-5.66-9.67-5.94-9.67-5.06m-54.68,7.93c-3.77,2.26-3.54,3.2.25,1,1.66-.95,3-2,3-2.26,0-.72-.1-.68-3.27,1.22m-295.12,1a10.5,10.5,0,0,0,3.53,1.59c.56,0-.12-.71-1.51-1.59a10.41,10.41,0,0,0-3.53-1.59c-.55,0,.13.71,1.51,1.59m336.7.91c0,.75,9.57,7.45,10.64,7.45s-.92-1.51-6.86-5.47c-2.08-1.38-3.78-2.28-3.78-2m231.61,1.4c-3.77,2.25-3.55,3.2.25,1,1.66-1,3-2,3-2.26,0-.71-.11-.67-3.27,1.23m-563.26-.27c0,.29,1.46,1.09,3.25,1.78s2.81.79,2.27.23c-1.15-1.18-5.52-2.78-5.52-2m367,2.16c3.6,2.67,15.14,8.62,16.64,8.59.83,0-18.8-11.12-19.67-11.12-.21,0,1.15,1.14,3,2.53m-359,1.45c0,.76,5.23,2.86,5.74,2.31.22-.26-1-1-2.66-1.65s-3.08-1-3.08-.66m-27.78,4.41a6.6,6.6,0,0,0,3,1.6c.59,0,.19-.77-.88-1.67a6.57,6.57,0,0,0-3-1.6c-.59,0-.19.77.89,1.67m283.09,3.63c-5.68,2.8-10.16,5.27-10,5.5.52.56,18.83-8.23,20.13-9.67s1.57-1.63-10.17,4.17m82.23-2.74a11.87,11.87,0,0,0,5.48,3.42,14.31,14.31,0,0,1,5.72,3.19l2.57,2.49-2.43-3a11.94,11.94,0,0,0-5.87-3.77c-1.9-.39-3.68-1.36-4-2.16a4.31,4.31,0,0,0-2.17-2.14c-1.16-.5-1,.11.65,2m233.53-.31c-1.66,1.26-6.34,4.32-10.38,6.81s-7.16,4.75-6.92,5c.45.5,15.71-9.23,19.32-12.31,2.94-2.52,1.51-2.16-2,.49M460.3,885.89c-1.94.82-2.85,1.51-2,1.53a13.43,13.43,0,0,0,4.54-1.49c3.89-2,2.08-2-2.52,0m163.17,1.26c1.86.9,3.63,1.37,3.92,1.05.6-.67-4.34-2.92-6.12-2.78-.66.05.33.83,2.2,1.73M776.83,887c-1.39.88-2.07,1.59-1.51,1.59a10.39,10.39,0,0,0,3.52-1.59c1.39-.88,2.07-1.59,1.52-1.59a10.33,10.33,0,0,0-3.53,1.59m-545.36,3.34a10.47,10.47,0,0,0,3.52,1.6c.56,0-.13-.72-1.51-1.6a10.71,10.71,0,0,0-3.53-1.59c-.55,0,.13.72,1.52,1.59m42.84-.7a29.59,29.59,0,0,0,5.54,1.68c2.42.48,2.9.4,1.51-.27a29.59,29.59,0,0,0-5.54-1.68c-2.42-.49-2.9-.4-1.51.27m172.38.75c-4,1.52-4,1.53-.51.89a18.14,18.14,0,0,0,5-1.59c2.22-1.4.08-1.07-4.53.7m183-.78a18.08,18.08,0,0,0,5,1.77q3.52.72,2-.31a17.8,17.8,0,0,0-5-1.76c-2.35-.49-3-.39-2,.3m139.62.77c-2.52,1.35-2.61,1.5-.51.93,2.86-.77,6.07-2.58,4.54-2.55a14.85,14.85,0,0,0-4,1.62m-531.76,2.56a17.72,17.72,0,0,0,4,1.78c1.75.51,2.06.43,1-.29a17.33,17.33,0,0,0-4-1.78c-1.75-.51-2.06-.43-1,.29m246.47.78c-2.53,1.35-2.61,1.5-.5.94A9.23,9.23,0,0,0,487,893c1.3-1.35.59-1.17-3,.72m114.42-.11c4.22,1.89,5.84,2.15,4.48.75a11,11,0,0,0-4.48-1.66l-3.53-.67,3.53,1.58m41.33-.59c2.1,1.34,9,2.74,7.06,1.42a18.14,18.14,0,0,0-5-1.7c-2.2-.43-3-.32-2,.28M431.57,894.3c-1.41.7-.8.8,2,.32a19.43,19.43,0,0,0,4.45-1.08c.87-.84-4.53-.21-6.46.76m-186,2c2.45,1.61,6.7,2.79,5.54,1.53a10.08,10.08,0,0,0-4-1.81c-2-.47-2.5-.37-1.51.28m230.09.28c-1.81.58-3.28,1.34-3.28,1.69,0,.92,5.35-.65,6.5-1.9s1.15-1.19-3.22.21m130.79.43a10.71,10.71,0,0,0,3.53,1.59c.56,0-.12-.72-1.51-1.59a10.41,10.41,0,0,0-3.53-1.59c-.55,0,.13.71,1.51,1.59m182.73,1.5c-6.27,3.1-10,5.73-5.29,3.69C790.1,899.55,796,896.5,796,896c0-.81.26-.91-6.79,2.58m-375.26-.95-3.53.83h3.53a28.56,28.56,0,0,0,6.55-.84l3-.85-3,0a36.12,36.12,0,0,0-6.55.83m240.42-.17a32.21,32.21,0,0,0,7,1.68c3.41.47,4.35.37,2.91-.32a32.63,32.63,0,0,0-7.06-1.67c-3.2-.43-4.21-.32-2.9.31m91.23-.12c-1.94.25-3.92.88-4.41,1.4-1.08,1.16,7.35.07,9.45-1.22,1.7-1.05,1.63-1.05-5-.18M615.43,901c2.44,1.19,4.61,2,4.83,1.73.44-.48-7.33-4.11-8.52-4-.41.05,1.25,1.06,3.69,2.26m-356.75.45a18.79,18.79,0,0,0,5,1.51c.83,0-.07-.68-2-1.51a19,19,0,0,0-5-1.5c-.83,0,.08.68,2,1.5m205.14,0c-2.52,1.34-2.6,1.5-.5.93,2.86-.77,6.07-2.58,4.53-2.55a15,15,0,0,0-4,1.62m207.16-.6a80.63,80.63,0,0,0,11.6,1.57c5.73.42,6.89.32,4-.35-5.85-1.36-20.16-2.47-15.63-1.22m54,.12a59,59,0,0,0-9.07,1.5c-1.83.93,16.87-.72,19.06-1.69l2-.9-2,.08c-1.11,0-5.6.49-10,1m-455.74,3.78a13.84,13.84,0,0,0,5,1.56l2,0-2-.89a34.62,34.62,0,0,0-5-1.55l-3-.68,3,1.58m183.46,0c-4,1.52-4,1.53-.5.88,4.11-.77,8.32-2.46,6-2.44a24.64,24.64,0,0,0-5.55,1.56m170.44-.72c1.07,1.08,7.31,2.89,6.36,1.84a14.45,14.45,0,0,0-4-1.74c-1.84-.58-2.92-.63-2.4-.1m152.65.67c-1.94.83-2.85,1.52-2,1.54a13.21,13.21,0,0,0,4.54-1.5c3.89-2,2.08-2-2.52,0m-334.18,3.39c-4,1.52-4,1.53-.5.88,4.12-.76,8.32-2.46,6.05-2.44a24.64,24.64,0,0,0-5.55,1.56m325.11,0c-1.94.82-2.85,1.52-2,1.53a13.37,13.37,0,0,0,4.54-1.49c3.89-2,2.08-2-2.52,0m-484.88.55a17.64,17.64,0,0,0,4.54.93l2,0-2-1a12.37,12.37,0,0,0-4.54-.92l-2.53,0,2.53.89m353.32,0a10.2,10.2,0,0,0,3.53,1c1,0,.77-.35-.5-1a10.38,10.38,0,0,0-3.53-1c-1,0-.76.35.5,1M296,912.07a17.85,17.85,0,0,0,5,.87c2.26,0,2.21-.11-.5-.87-4.27-1.2-7.93-1.2-4.54,0m127.52,0-3,.85,3,0a19.59,19.59,0,0,0,5.54-.87l2.53-.9-2.53,0a25.58,25.58,0,0,0-5.54.88M646.28,912a32.17,32.17,0,0,0,6.05,1.53l4,.65-4-1.52a24.35,24.35,0,0,0-6.05-1.53l-2,0,2,.89m105.85.66-4,1.52,4-.65a32.17,32.17,0,0,0,6-1.53l2-.89-2,0a24.35,24.35,0,0,0-6,1.53m-437.5,2.77a29,29,0,0,0,6.55.85h3.53l-4-.92c-5.43-1.25-10.5-1.2-6.05.06m87.2.13c-10.83,1.36-12,2.05-2.25,1.31,8.32-.62,17.66-2.36,12.33-2.3-1.39,0-5.92.46-10.08,1m258.06-.13a19.72,19.72,0,0,0,5.55.87l3,0-3-.85a25.52,25.52,0,0,0-5.55-.87l-2.52,0,2.52.9m77.63.29c-3,.62-5.09,1.32-4.53,1.54s4.19-.29,8.06-1.14,5.91-1.55,4.53-1.55a56.65,56.65,0,0,0-8.06,1.15m-410,1.62a16,16,0,0,0,5,0c1.24-.26,0-.47-2.78-.46s-3.78.22-2.25.48m16.59,1.12a34.64,34.64,0,0,0,7.06,0c2.09-.24.63-.44-3.25-.45s-5.6.19-3.81.44m16.91.34c-3.33.43.53.53,8.57.22s14.8-.74,15-1c.67-.65-17-.1-23.61.74m320.56.15c2.22.44,12,.77,21.68.72s16.73-.25,15.62-.44c-4.32-.77-41.09-1-37.3-.28m41.08-.53a7.56,7.56,0,0,0,3.54,0c1-.27.17-.51-1.77-.51s-2.74.24-1.77.51"/><path id="path5" class="cls-5" d="M509,34.21c-20.2.91-14.89,1.66,11.76,1.66,13.77,0,24.81-.25,24.53-.55-.89-1-23.66-1.69-36.29-1.11Zm-27,2.95-4.41,1c-5.7,1.36-.9,1.31,5.95-.06,4.18-.83,6-1.49,4-1.47a32.7,32.7,0,0,0-5.54.49Zm72.07.26c4.05,1.42,11.79,2.47,10.09,1.38-.83-.52-4-1.25-7.06-1.61-3.28-.38-4.52-.28-3,.23Zm15.63,3.32c3.6,1.66,8.14,2.61,7.06,1.48-.56-.58-2.83-1.36-5.05-1.73-2.55-.43-3.29-.34-2,.25ZM462.31,42c-2,1.43.52,1.43,3.53,0l2-1-2-.07a6.72,6.72,0,0,0-3.53,1Zm-11.95,3.5c-1.87.59-3.2,1.29-3,1.56s2.45-.22,4.9-1.07c5-1.74,3.32-2.16-1.94-.49Zm135.94.39c4.61,2,6.42,1.93,2.52,0a13.33,13.33,0,0,0-4.53-1.49c-.83,0,.07.71,2,1.53ZM441.64,48.37a7.21,7.21,0,0,0-3,1.66c-.68.77-.19.87,1.52.32,5.21-1.69,6.43-3.29,1.5-2Zm153.73.74c1.39.89,2.71,1.41,3,1.16.62-.69-.14-1.22-2.94-2.05l-2.52-.74,2.51,1.63Zm-163,2.59c-1.25.27-2.27.92-2.27,1.46s1.36.46,3-.18c2.71-1,4.2-2.3,2.26-1.91l-3,.63Zm72.08,1.14a29.88,29.88,0,0,0,6.55,0c1.8-.25.33-.45-3.28-.45s-5.07.2-3.27.45Zm27.72,0a20.55,20.55,0,0,0,5.54,0c1.53-.26.28-.47-2.77-.47s-4.29.21-2.77.47Zm-44.9,1.43c-3.21.45-6.08,1.1-6.38,1.43-.86,1,12-.5,13.73-1.54s1.39-1.12-7.35.11ZM548,54.13c.83.52,4.23,1.23,7.56,1.58,6.89.72,3.69-.71-4-1.8-2.9-.41-4.39-.32-3.52.22Zm62.5,2.36A16.74,16.74,0,0,0,615,58.62c.56,0-.58-1-2.52-2.13A16.55,16.55,0,0,0,608,54.35c-.56,0,.58,1,2.52,2.14ZM470.94,57.74c-5.58,1.44-5.91,2.34-.52,1.43,4.59-.77,9.15-2.7,6-2.54a41.59,41.59,0,0,0-5.48,1.11Zm93.69-.33c.56.59,3,1.37,5.55,1.73,3,.42,3.68.33,2-.27-5.31-1.92-8.57-2.55-7.56-1.46ZM415.69,59.48c-1,.28-1.76,1-1.76,1.58s1,.52,2.26-.23c3.78-2.17,3.64-2.55-.5-1.35Zm101.06.41c-7,.46-4.58.64,9.07.66,10.25,0,17.29-.12,15.63-.31a143.31,143.31,0,0,0-24.7-.35Zm-60,2.16c-1.27.61-1.46,1-.51,1a10.2,10.2,0,0,0,3.53-1c1.27-.6,1.46-.95.51-.95a10.33,10.33,0,0,0-3.53.95Zm91.48-.34a7.52,7.52,0,0,0,3.53,0c1-.28.18-.51-1.77-.51s-2.73.23-1.76.51Zm31,.25a18.65,18.65,0,0,0,5,1.63l3.53.68-3.53-1.58c-4.1-1.83-7.6-2.33-5-.73ZM408.32,63.67c-1.89,1.56-1.88,1.6.33,1A5.49,5.49,0,0,0,411.48,63c.85-1.52-1-1.15-3.16.64Zm79.39-.51a11.86,11.86,0,0,0-4,1.65c-.67.76,1,.52,10.89-1.56l4.53-1h-4a34.61,34.61,0,0,0-7.36.87ZM558.08,63c3.5,1.27,13.11,2.5,10.58,1.35a36.79,36.79,0,0,0-7.56-1.58c-3.41-.42-4.57-.33-3,.23ZM445.17,66l-2.51,1.68,2.51-.73a9.83,9.83,0,0,0,3.48-1.72c1.54-1.58-.67-1.1-3.48.77Zm144.16-.75c0,.93,4.13,2.59,4.75,1.91.16-.17-.84-.9-2.23-1.6s-2.52-.84-2.52-.31ZM474.14,66.47c-2.08.44-4.12,1.18-4.53,1.64-.85.94,6.27-.34,9.33-1.69,2.47-1.08.36-1.06-4.8,0Zm101.58.61c5.66,1.82,7.8,2.06,5.54.64a21.36,21.36,0,0,0-6-1.61l-4.54-.65,5,1.62ZM437.11,69.39c-3.3,1.5-3.33,1.56-.5,1a9.55,9.55,0,0,0,4-1.68c1.21-1.3.86-1.23-3.48.73ZM395.78,70.5c-1.41.87-1.85,1.54-1,1.53a7.1,7.1,0,0,0,3.47-1.65c2.43-2,.93-1.95-2.46.12Zm66.73-.66a11.74,11.74,0,0,0-4,1.68c-.78.92,5.22-.34,8.37-1.74,2.55-1.14.11-1.1-4.34.06Zm123.79.57a18.68,18.68,0,0,0,5,1.5c.83,0-.07-.67-2-1.5a19.06,19.06,0,0,0-5-1.5c-.83,0,.07.68,2,1.5Zm46.81-.67a9,9,0,0,0,2.77,2.45c1.49.88,1.89.88,1.4,0a9,9,0,0,0-2.77-2.45c-1.49-.88-1.88-.89-1.4,0Zm-37.73,3.84a24.44,24.44,0,0,0,5,2.3l2.53.74-2.53-1.57a24,24,0,0,0-5-2.31L592.86,72l2.52,1.58ZM389.17,74.83c-1.08.9-1.51,1.64-.95,1.64a7,7,0,0,0,3-1.64c1.08-.9,1.51-1.63.95-1.63a6.91,6.91,0,0,0-3,1.63Zm59.53,0-3,1.58,3-.66a18.2,18.2,0,0,0,4.54-1.6c2.71-1.67-1.14-1.09-4.54.68Zm-67.29,5c-5.08,3.54-6.75,5.85-2,2.71,3.37-2.2,8-6,7.24-6a40.33,40.33,0,0,0-5.29,3.32Zm60.23-2.57a7.33,7.33,0,0,0-3,1.67c-.68.76-.19.87,1.52.31,5.21-1.69,6.43-3.29,1.5-2Zm166.84,2.55c3,1.78,6,3.24,6.55,3.24s-1.48-1.46-4.53-3.24-6-3.24-6.56-3.24,1.49,1.46,4.54,3.24Zm34.28-3a56,56,0,0,0,6,5.63c3.33,2.85,6,4.81,6,4.35,0-1.17-12-11.1-12-10ZM431.57,82.05c-2.22,1.16-3.75,2.15-3.4,2.2,1,.14,7.93-3.21,7.93-3.82s0-.75-4.53,1.62Zm-24.7,2.29c-1.94,1.17-3.17,2.15-2.73,2.18,1.07.06,6.76-3.21,6.76-3.88s-.06-.71-4,1.7Zm210.68,0c3.5,2.62,5.49,3.39,3,1.16-1.39-1.25-3-2.28-3.53-2.28s-.33.5.5,1.12Zm-246.21,2.5c-2.07,1.35-3.77,2.84-3.78,3.31s1.81-.47,4-2.1a22.72,22.72,0,0,0,4-3.36c0-.61-.19-.51-4.28,2.15Zm47.81.44c-2.95,1.53-5.18,3-4.95,3.25s3.32-1,6.87-2.84,5.78-3.28,4.95-3.26-3.92,1.3-6.87,2.85Zm207.47-1.58c0,.84,8.21,7.72,8.64,7.24.24-.26-1.6-2.1-4.1-4.08s-4.54-3.4-4.54-3.16ZM656,89.07c.25.15,5.4,5.55,11.46,12s10.13,10.45,9,8.93c-3.6-5-18.74-21.19-19.86-21.19-.61,0-.9.13-.65.28ZM358.2,97.36c-4.26,3.49-7.56,6.54-7.34,6.78.41.45,15.68-11.92,15.68-12.7s-.73-.32-8.34,5.92Zm271-5.42c.53.5,5.54,4.49,11.14,8.85a210.43,210.43,0,0,1,18.4,16.46c4.52,4.7,8.21,8.2,8.21,7.78,0-1.65-20.57-23.94-21.14-22.91-.35.61-4.09-1.62-8.41-5-6.67-5.22-11.3-8.15-8.2-5.18ZM387.92,96.22c-2.37,1.58-4.12,3.1-3.87,3.38.45.49,8.7-5.14,8.7-5.94,0-.63-.2-.52-4.83,2.56Zm12.39,1.06c-7.59,4.39-8,5.64-.5,1.53,7.07-3.88,7.89-4.45,6.46-4.45-.51,0-3.19,1.32-6,2.92Zm-22.05,6c-4.8,4-5.81,5.15-3.15,3.55,2.31-1.39,8.32-6.8,7.56-6.81a26,26,0,0,0-4.41,3.26Zm-38.61,10.82L329,124.36a5.59,5.59,0,0,0-1.76,2.73c0,.57,2.61-1.68,5.8-5s8.28-8.41,11.32-11.31,5.23-5.28,4.85-5.28-4.67,3.86-9.55,8.59Zm42.52-6c-7,4.4-11.59,7.61-11.59,8.13s-.47.88,8.82-5.15c4-2.61,7.3-4.94,7.3-5.18,0-.62-.12-.56-4.53,2.2Zm-16.63,5.26c-8,6.79-11.45,10.41-8.82,9.32,1-.4,1.76-1.08,1.76-1.52s2.94-3.16,6.54-6.07c5.54-4.51,8.6-7.54,7.38-7.34-.17,0-3.26,2.55-6.86,5.61Zm319.68,9.94c5.79,8.26,8.17,11.08,6.22,7.38s-11-16.24-11.68-16.27c-.43,0,2,4,5.46,8.89ZM366.4,118.94c-2.25,2.17-2.26,2.22-.16,1.11a8.61,8.61,0,0,0,2.83-2.3c1-1.77-.1-1.29-2.67,1.19Zm-10.47,7.51c-9.71,7.38-10.72,7.83-5.76,2.51,6.25-6.71,5.23-6.7-1.77,0-10.51,10.1-6.4,9.31,7.81-1.5,6.43-4.88,8.08-6.39,7-6.39-.15,0-3.44,2.41-7.3,5.35Zm-40.36,13.13c-9.51,11.46-9.41,12.41.17,1.53,4.29-4.87,7.58-9.11,7.31-9.4s-3.63,3.24-7.48,7.87Zm382.82,4.92c4.05,7.19,4.79,7.19,1.13,0-1.56-3.07-3.16-5.58-3.55-5.58s.7,2.51,2.42,5.58Zm-394.48,9.22c-.9,1.36-3.55,5.23-5.89,8.6-3.78,5.46-3.85,5.64-.58,1.67,5.95-7.25,9.86-12.82,9-12.77-.46,0-1.58,1.14-2.49,2.5Zm-16.3,23.36c-2.73,4.09-4.58,7.61-3.06,5.85,1.87-2.17,6.48-9.47,6-9.47-.28,0-1.6,1.63-2.93,3.62Zm428.9,8.69c.59,1.87,1.26,3.19,1.49,2.94.5-.55-1.4-6.34-2.08-6.34-.26,0,0,1.53.59,3.4Zm-437.39,4.68c-2,2.81-2.64,4.55-1.45,3.73s3.59-5.12,2.84-5.12c-.22,0-.85.62-1.39,1.39Zm440.24,4.13a17.17,17.17,0,0,0,1.57,4.37c1,1.05-.7-5.85-1.68-7-.47-.58-.42.62.11,2.66Zm2.71,9.52a23.21,23.21,0,0,0,1.44,5c1.5,3,1-1.25-.62-5l-1.42-3.35.6,3.35Zm-453.81,6.12c-.86,1.84-1.34,3.35-1.06,3.35s1.21-1.51,2.07-3.35,1.33-3.34,1.06-3.34-1.21,1.51-2.07,3.34Zm-5,9.56c-1.48,2.81-2.51,5.32-2.27,5.58s1.66-2,3.18-5.1c3.44-7,2.74-7.35-.91-.48ZM726,222.1c.93,4.27,1.41,4.68,1.41,1.18,0-1.59-.47-3.22-1-3.61s-.81.37-.36,2.43Zm-467.3,7c-1.28,2.63-1.34,3.75-.16,2.94.89-.61,2.28-5.1,1.58-5.1a5.64,5.64,0,0,0-1.42,2.16Zm-4.88,11.83a57.45,57.45,0,0,0-3.17,8c0,.45,1.64-2.62,3.59-6.82s3.38-7.82,3.17-8-1.82,2.84-3.59,6.82Zm475.33-2.11c.93,9.93,2.22,13.79,1.61,4.84-.31-4.6-.91-8.78-1.34-9.3s-.54,1.5-.27,4.46ZM248.55,253.27c-.56,1.62-.83,3.14-.6,3.4s.9-1.07,1.49-2.94c1.31-4.16.52-4.56-.89-.46ZM732,289.48c0,17.93.29,31.11.63,29.31.85-4.35.86-56,0-59.33-.35-1.41-.65,12.1-.65,30ZM245.69,261.59c-.62,2-.95,3.78-.74,4s.9-1.18,1.52-3.15,1-3.78.74-4-.9,1.18-1.52,3.14Zm13.74,10.17c-5.36,14.38-6.77,19.67-5.93,22.18.72,2.15.95,1.85,1.93-2.41.62-2.68.86-5.32.54-5.89a1.39,1.39,0,0,1,.41-1.74c.92-.67,6.42-18.21,5.89-18.83-.14-.15-1.42,2.85-2.84,6.69Zm-17.3-.17c-.92,2.55-1.49,4.85-1.26,5.1s1.18-1.62,2.1-4.17,1.49-4.86,1.26-5.11-1.17,1.62-2.1,4.18Zm-3,8.94c-1,3.4-1.63,7.68-1.18,7.68.68,0,2.62-8.14,2.08-8.74-.25-.27-.65.2-.9,1.06Zm69.14,7.4c-1.12,2.3-3.62,7.39-5.56,11.33s-3.25,7.9-2.94,8.81.15,1.37-.45,1-1.55.57-2.19,2.12c-.83,2-.85,2.6,0,2.06s.92.08.5,1.87c-.46,2-.23,1.78.88-.69,8.76-19.59,16.14-39.51,9.8-26.46Zm-72.66,6a20.62,20.62,0,0,0-1.05,4.79c0,.67.72-.74,1.52-3.14s1.26-4.55,1-4.79-.9,1.18-1.52,3.14Zm15.65,3.54c-.35,1.55-.94,3.7-1.31,4.78-.49,1.38-.32,1.71.56,1.11s1.11.21.71,3.44c-.32,2.54.07,1.65,1-2.19s1.15-7.15.61-8.22c-.72-1.42-1-1.23-1.53,1.08Zm-18.71,8.22a31.43,31.43,0,0,0-1,6.51c0,1.22.69-.53,1.42-3.9,1.54-7,1.2-9.07-.42-2.61Zm14.19,10.58c-.66,3.15-1,5.93-.79,6.18s1-2.11,1.64-5.24,1-5.91.79-6.18-1,2.09-1.64,5.24Zm2.55-2a59.35,59.35,0,0,0-1.1,8.68l-.54,7,1.45-8.3c1.37-7.84,1.45-11.06.19-7.42Zm44.84,3.52c-1.46,3.54-1.47,4.18-.06,3.22.76-.52.9.09.46,1.88-.65,2.64-.65,2.64.87-.14,1.81-3.33,2-4.87.47-3.82-.75.51-.89,0-.44-1.61.95-3.27.12-3-1.3.47Zm-65,4.61a36.8,36.8,0,0,0-1,6.48l-.57,5.57,1.39-6.1c1.28-5.63,1.38-8.16.22-5.95Zm59.34,8.81c-1.45,3.5-2.45,6.57-2.23,6.82s1.61-2.41,3.06-5.91,2.45-6.57,2.22-6.82-1.6,2.4-3.05,5.91Zm-44.37-1.77c-1.49,8.55-1.66,10.55-.75,8.91,1-1.87,2.58-12.26,1.83-12.26-.27,0-.76,1.5-1.08,3.35Zm47.39,1.2c-.93,2.56-1.49,4.85-1.26,5.11s1.17-1.62,2.1-4.18,1.49-4.85,1.26-5.1-1.18,1.62-2.1,4.17ZM288,340.69c-.62,2-1,3.77-.74,4s.9-1.18,1.52-3.15,1-3.77.74-4-.9,1.18-1.52,3.15Zm-42.74,1.55a90.94,90.94,0,0,0-.57,12.25l.12,7.8.88-10.58c.94-11.43.7-16.69-.43-9.47ZM226,341.83c-.83,4.39-1.81,17.14-1.28,16.55.72-.8,2.79-18.07,2.24-18.68-.26-.28-.69.67-1,2.13Zm58,.55c-.67,1.61-1,3.19-.7,3.5s1-.83,1.58-2.53c1.39-4,.69-4.79-.88-1Zm474.17,3.5c1.63,2,13.61,10.31,13.6,9.42,0-.44-1.7-1.92-3.78-3.28s-5.36-3.57-7.3-4.92-3.07-1.9-2.52-1.22ZM285,349.59a21.47,21.47,0,0,0-1.06,4.79c0,.67.72-.74,1.52-3.13s1.27-4.56,1.06-4.8-.9,1.18-1.52,3.14Zm-4.57,2.21c-.92,2.55-1.49,4.85-1.26,5.1s1.18-1.62,2.1-4.17,1.49-4.86,1.26-5.11-1.18,1.62-2.1,4.18ZM733,354c3.3,3.71,6.9,7.29,8,7.95s-.6-1.52-3.78-4.88c-5.42-5.7-7.41-8.78-4.52-7,.91.58,1,.43.17-.52a7.22,7.22,0,0,0-3.48-1.81c-1.93-.41-1.24.78,3.61,6.24Zm-492.31.59c-.1,2.53-.42,6.29-.71,8.35-.49,3.44-.44,3.53.55,1,.59-1.5.91-5.26.71-8.35-.33-5.23-.37-5.3-.55-1Zm493.77-3.54c0,.31,1.36,1.34,3,2.29s3,1.48,3,1.17-1.36-1.33-3-2.29-3-1.48-3-1.17Zm-452.6,7.77a20.48,20.48,0,0,0-1.06,4.89,24.22,24.22,0,0,1-2,6.34c-2.35,5.4-2.59,8-.29,3.34,1.95-4,5.46-16.39,4.82-17.09-.24-.27-.91.87-1.48,2.52Zm491-2.36,5,4,4.53,3.66-4-4c-2.22-2.19-4.45-4-5-4s-.74.13-.51.32ZM277,361.67c-.59,1.88-.86,3.41-.6,3.41.68,0,2.58-5.79,2.08-6.34-.23-.26-.89,1.07-1.48,2.93Zm-33.08,25.2c.66,25.37.45,27.16-3.38,28.68-1.21.47-1.16.61.22.68,4.32.22,4.88-3.64,4.23-29-.34-13.11-.86-24.1-1.16-24.41s-.26,10.51.09,24ZM744.57,364c3.5,2.63,5.49,3.39,3,1.16-1.38-1.25-3-2.28-3.52-2.28s-.33.5.5,1.12Zm38.31.38c0,.3,2.72,2.87,6,5.7S795,375,795,374.67s-2.72-2.87-6.05-5.7-6-4.89-6-4.58Zm-26.22,1c1.12,1.42,19.25,15.25,18.69,14.26-.33-.59-4.1-3.77-8.38-7.07-7.7-5.93-11.28-8.43-10.31-7.19ZM274,369.47c-.59,1.88-.85,3.4-.6,3.4.69,0,2.59-5.78,2.09-6.34-.23-.25-.9,1.08-1.49,2.94ZM223,373.15c-.81,7.48-.71,27.74.18,34.26.38,2.75.68-5.14.68-17.55,0-25.18,0-24.79-.86-16.71Zm52.49,6.05a25.71,25.71,0,0,0-1.1,4.81l-.62,3.9,1.51-4.36c1.35-3.88,1.49-6.73.21-4.35Zm526,2.16c7.17,8.09,23.67,24.81,18.64,18.9a212.84,212.84,0,0,0-18.69-19.56l-3-2.75,3,3.41Zm-562.76,4.32c0,2.46.22,3.33.46,1.94a13.55,13.55,0,0,0,0-4.46c-.25-1.06-.45.07-.44,2.52Zm542.09-1.14c0,.69,3.39,4.07,9,8.92,1.4,1.22,2.22,1.64,1.83.94-1-1.81-10.79-10.74-10.79-9.86Zm-513.95,5c-.59,1.86-.85,3.4-.59,3.4.68,0,2.58-5.79,2.08-6.34-.22-.25-.9,1.07-1.49,2.94Zm5.08,2c-1.61,4.63-2.42,8.11-1.88,8.11s3.79-10.29,3.32-10.81c-.2-.22-.85,1-1.44,2.7Zm507.86-2.68c0,.28,1.67,1.9,3.7,3.62s3.39,2.55,3,1.85c-.8-1.42-6.7-6.25-6.7-5.47Zm-516,8.68c-.63,2-1,3.78-.74,4s.9-1.18,1.52-3.15.95-3.78.73-4-.9,1.18-1.51,3.14Zm537.5,7.67c11.37,12,11.33,13.88-.06,2.72-7.07-6.92-6.58-6.27,2.46,3.28,6.21,6.55,15.45,16.79,20.52,22.74s8.16,9.06,6.85,6.92c-4-6.59-14.11-19-15-18.36a1.07,1.07,0,0,1-1.47-.56c-.35-.62,0-1.14.67-1.14,1.44,0-17.67-21.72-20.78-23.62-1.07-.65,2,3,6.81,8Zm-533.49.11c-.69,2.51-1.06,4.78-.83,5s1-1.6,1.65-4.12,1.06-4.77.83-5-1,1.6-1.65,4.11Zm-7,1.71c-.66,1.62-1,3.19-.69,3.5s1-.82,1.57-2.53c1.39-4,.7-4.78-.88-1Zm565.4,1.15c0,.58,1.92,3,4.26,5.45s3.37,3.15,2.27,1.62c-3.42-4.79-6.53-8.15-6.53-7.07Zm-561.49,8.18c-.63,2.58-.91,4.93-.63,5.24s1-1.55,1.64-4.13.91-4.93.63-5.23-1,1.55-1.64,4.12Zm-8,3.46c-.62,2-1,3.78-.74,4s.9-1.18,1.52-3.15,1-3.77.74-4-.9,1.18-1.52,3.14Zm556.34-1.23c.59,1.22.9,2.22.69,2.22a10.13,10.13,0,0,1-2.21-2.22c-1-1.23-1.31-2.23-.69-2.23s1.61,1,2.21,2.23Zm26.79,7.8a82,82,0,0,0,6.33,8.08c.87.76-.9-2.22-3.93-6.63s-5.87-8-6.32-8.08,1.31,2.95,3.92,6.63ZM210,423.64c-3.91,2.35-3.47,3.15.51.92,3.8-2.13,4.47-2.69,3.19-2.63a14,14,0,0,0-3.7,1.71Zm609.69,3,3,3.62L819.42,427a26.57,26.57,0,0,1-3.28-3.62c0-.86.84-.1,3.59,3.27Zm-558,2c-.62,2.57-.94,4.89-.7,5.16s.93-1.65,1.53-4.26.92-4.93.7-5.16-.9,1.68-1.53,4.26Zm-7.44-.66c-.34,1.47-.91,3.6-1.27,4.73-.45,1.41-.32,1.7.4.94,1.1-1.17,2.78-8.36,2-8.36-.26,0-.75,1.21-1.08,2.69Zm-57.63,3.4c-1.08.9-1.51,1.64-.95,1.64a7,7,0,0,0,3-1.64c1.08-.9,1.51-1.63,1-1.63a6.91,6.91,0,0,0-3,1.63Zm62.15,9.49a50.66,50.66,0,0,0-1,8.71c.06,1.65.73-.73,1.48-5.29,1.56-9.46,1.2-12.06-.48-3.42Zm-7.65-.82c-.37,2-.91,4.63-1.21,5.85-.35,1.47-.2,1.85.45,1.12,1-1.13,2.66-10.59,1.85-10.59-.24,0-.73,1.63-1.09,3.62Zm598-1.05c2.64,4.76,8.63,14.14,9,14.14s.19-.63-4.95-9.19c-2.11-3.52-4.08-6.4-4.37-6.4s-.16.65.29,1.45Zm-670.69,4.31c-4.36,3.63-5.31,4.93-1.89,2.63,5.37-3.64,7-5.05,5.9-5.05-.6,0-2.41,1.09-4,2.42Zm593.37,2.89a8.06,8.06,0,0,0,1.76,4.34c1,1.15,1.43,1.61,1,1-1.41-2-.77-3.14.92-1.61,1.51,1.38,1.56,1.3.56-.79-1.93-4-4.25-5.6-4.25-2.95ZM160.25,457.8c-11.05,9.51-16.49,14.86-16.49,16.21,0,.3,2.16-1.66,4.79-4.35s9.21-8.6,14.62-13.12c9-7.56,10.56-9,9.42-9-.21,0-5.78,4.63-12.34,10.29Zm88.59-2.49c0,2.14.2,3,.46,1.95a10.23,10.23,0,0,0,0-3.9c-.26-1.07-.46-.19-.46,1.95Zm528.68-1.54c.49,1.43.3,1.68-.77,1s-1.19-.61-.18.59c2,2.45,4.46,2.38,3.26-.09-1.34-2.77-3.17-4-2.31-1.5Zm-520.47,13.8c0,7.66.17,10.79.36,7s.2-10.1,0-13.93-.36-.69-.36,7Zm522.86-7.17c.65.87,1.61,1.28,2.14.91,1.17-.8.3-1.89-1.78-2.23-1.21-.19-1.29.08-.36,1.32Zm83.69,2.43c2.56,4.74,4,6.67,4,5.5s-5-9.68-5.64-9.68c-.32,0,.44,1.88,1.68,4.18Zm-81.15.14c-.3.53.67,2.42,2.14,4.18s2.6,3.33,2.49,3.49c-.49.69,2.88,6.69,4.55,8.13s1.76,1.47.07-.73a8.35,8.35,0,0,1-1.76-3.53c0-1.16-6-12.52-6.65-12.52-.16,0-.54.45-.84,1ZM247.9,469.24c0,3.67.2,5,.42,3a32.34,32.34,0,0,0,0-6.68c-.23-1.68-.41,0-.41,3.64Zm620.57,2.22c1.75,3.79,3.08,5.64,3.1,4.3,0-.69-.92-2.45-2.05-3.9-1.63-2.06-1.86-2.14-1-.4ZM134.18,483c-2.72,2.66-7,8-6.43,8,.26,0,2.47-2.26,4.92-5,4.46-5,5.3-6.67,1.51-3Zm123.67,2.41a35.1,35.1,0,0,0,1.31,8.36c1.72,5.79,1.75,4,.06-5-1-5.29-1.35-6.19-1.37-3.34Zm-8.17,6.34c.23,2.89,1.8,5.34,1.87,2.92,0-1.35-.38-2.75-.93-3.13s-1-.28-.94.21Zm-126.77,4.58c-10.16,13.32-19.3,27-18.07,27,.28,0,2-2.38,3.78-5.3a197.53,197.53,0,0,1,14.88-20.58c1.92-2.29,3.29-4.39,3-4.68s-1.88,1.34-3.62,3.6Zm756.93-1.45c.63,1.54,1.28,2.65,1.45,2.46.61-.68-.9-5.25-1.73-5.25-.48,0-.36,1.26.28,2.79ZM261.48,506.62c.48,7.45.37,8-1.28,7.33s-1.61-.49-.53.94a4.11,4.11,0,0,0,2.16,1.69c1.14,0,1.13-14.55,0-16.55-.51-.87-.65,1.89-.34,6.59Zm-8.85-4.8A8.53,8.53,0,0,0,254.1,505c1.41,2.09,1.44,2.08.88-.36s-2.35-4.61-2.35-2.77Zm632.74,5.59a6.39,6.39,0,0,0,1.46,3.13c1.38.94,1-1.1-.57-3.49-1.42-2.09-1.45-2.08-.89.36Zm2.42,5.28a13.12,13.12,0,0,0,1.44,3.89c.79,1.53,1.44,2.29,1.44,1.68a13.18,13.18,0,0,0-1.44-3.91c-.79-1.53-1.44-2.28-1.44-1.66ZM100.87,528.92c-3,5.17-4.65,9.68-2.27,6.05,2.71-4.15,6-10.59,5.44-10.59-.32,0-1.74,2-3.17,4.54Zm792.07-1.75c.64,1.54,1.29,2.64,1.45,2.46.62-.68-.89-5.25-1.73-5.25-.48,0-.35,1.26.28,2.79Zm1.87,5.62a13.9,13.9,0,0,0,1.55,3.85l1.52,2.78-.66-2.78c-.69-2.91-2.47-5.76-2.41-3.85ZM899,544.44a13.49,13.49,0,0,0,.86,3.89c.55,1.41.87,1.62.87.56a13.27,13.27,0,0,0-.87-3.9c-.54-1.41-.86-1.61-.86-.55Zm3.39,13.37c1.19,4.49,2.64,6.61,1.89,2.78a12.26,12.26,0,0,0-1.63-4.46c-.66-.73-.74-.16-.26,1.68Zm-817,3.81c-1.5,4.35-1.2,5,.6,1.38.85-1.74,1.3-3.44,1-3.78s-1,.74-1.59,2.4Zm-2.94,8.56c-.62,2-.95,3.77-.74,4s.91-1.18,1.53-3.15,1-3.78.73-4-.9,1.18-1.52,3.15Zm823.11-.09c1.12,6.4,2.37,8.82,1.72,3.31-.33-2.76-1-5.5-1.49-6.09s-.63.5-.23,2.78Zm-16.33,2.2a48.58,48.58,0,0,1,.64,6.68c.05,2.14.32,3.27.6,2.5s1-1.1,1.48-.74c1.26.86,0-4.81-1.84-8.44l-1.43-2.79.55,2.79ZM79.22,579a8.24,8.24,0,0,0-.78,4.16c.19,1.09.8.14,1.48-2.29,1.28-4.61,1-5.37-.7-1.87Zm15.23,6.91c-1.26,4.44-2.66,9.32-3.12,10.85-1.6,5.37-2.16,9.62-1,7.8.77-1.22.91-.33.52,3.35s-.28,4.39.41,2.78a18.28,18.28,0,0,0,1-5.57c.09-3.15,1.44-10.4,4-21.59,1.83-7.91.6-6.35-1.88,2.38Zm814.12-2.51c1.12,6.76,2.35,10,1.69,4.45a27.81,27.81,0,0,0-1.47-6.68c-.55-1-.63-.19-.22,2.23ZM894,591.78a26.27,26.27,0,0,0,.79,6.13l.81,2.78,0-2.78a33.79,33.79,0,0,0-.79-6.13l-.77-3.34,0,3.34ZM75.9,591.65a12.57,12.57,0,0,0-.62,3.84c0,1.23.39,1,1-.83a8.59,8.59,0,0,0,.62-3.84c-.19-.63-.66-.26-1,.83Zm815.52,4.58c.76,5.51,1.34,6.45,1.32,2.14a12.31,12.31,0,0,0-1-4.92c-.65-1.13-.77-.25-.34,2.78Zm-818.49,10a66.25,66.25,0,0,0-1.13,7.24c-.51,4.89-.49,4.86.91-1.11,1.34-5.69,1.53-11.09.22-6.13Zm820.29,28.41c0,27.75,0,29.12.78,14.51.43-8.87.44-22.66,0-30.64-.68-12.48-.79-10.22-.8,16.13Zm19.26-24.9c.94,5.69,1.45,6.12,1.45,1.2,0-2.21-.49-4.35-1.08-4.75s-.84.63-.37,3.55Zm-15,8.19c.29,5.21.91,10.22,1.37,11.14,1,2,.06-12.41-1.11-17.26-.48-2-.58.51-.26,6.12ZM87.45,616.45c-1.39,7.68-1.42,9.28-.14,7.08.65-1.12,1,4.58,1.11,17.27.08,10.41.43,20.44.8,22.28s.59-9.08.52-24.26c-.15-29.38-.46-32.42-2.29-22.37Zm826.73,4.3c0,2.45.22,3.32.46,1.93a13.49,13.49,0,0,0,0-4.45c-.25-1.07-.45.06-.44,2.52ZM69.8,627.15c-.83,3.43-.66,44.37.19,46.75.38,1.05.69-9.6.69-23.67s-.06-25.58-.14-25.58a13.38,13.38,0,0,0-.74,2.5Zm15.78,10.31c0,3.06.21,4.18.44,2.49a22,22,0,0,0,0-5.57c-.24-1.37-.42,0-.42,3.08Zm829.86,19.95c0,13.19.31,23.11.68,22.06.88-2.43.85-40,0-43.47-.36-1.41-.65,8.22-.65,21.41Zm-15.23-1c0,9.18.16,12.8.35,8s.19-12.3,0-16.71-.35-.51-.35,8.69ZM85.55,664.19c0,2.46.22,3.32.46,1.94a13.48,13.48,0,0,0,0-4.45c-.26-1.07-.46.06-.44,2.51Zm4.89,4.8c-.2,2.84,2.13,17.51,3,19.16.61,1.08.7.1.28-2.79-1.06-7.31-3.22-17.93-3.32-16.37ZM87,680.9c1,8.54,2.28,12.07,1.63,4.46-.31-3.68-1-7.44-1.42-8.36s-.58.7-.21,3.9Zm811.47,8c-.94,5.48-1.89,18.77-1.3,18.13s2.77-20.24,2.22-20.85c-.21-.23-.63,1-.92,2.72ZM72.19,690.12c0,1.9.44,3.77,1,4.14s.76-.7.36-3c-.85-4.93-1.35-5.36-1.35-1.15ZM890,692.05c0,2.44.22,3.31.46,1.93a13.46,13.46,0,0,0,0-4.45c-.25-1.07-.45.06-.43,2.52ZM94.93,694.27c.33,2.45,1,5,1.6,5.57,1.09,1.21.23-3.84-1.33-7.79q-.87-2.25-.27,2.22Zm-4.48,5.66c.49,2.91,1.17,5.59,1.51,6,.91,1-.68-9.21-1.62-10.31-.43-.51-.39,1.45.11,4.36Zm822.62,2.14a51.72,51.72,0,0,1-.74,6.13c-.48,2.39-.4,2.51.58.82.62-1.09,1-3.85.74-6.13-.34-3.6-.42-3.7-.58-.82Zm-815.6,1.67a17.49,17.49,0,0,0,1.44,5l1.42,3.35-.59-3.35c-.76-4.18-2.3-7.58-2.27-5ZM75.3,705.41a8.66,8.66,0,0,0,.92,3.9c1.3,2.21,1.3-.57,0-3.9l-.87-2.23,0,2.23Zm811.53,6.69c-.08,1.22-.38,3.48-.67,5l-.52,2.79,1.08-2.74a10.9,10.9,0,0,0,.67-5c-.4-2.22-.41-2.23-.56,0Zm-793,1.67c1.2,4.5,2.63,6.62,1.89,2.78a12.25,12.25,0,0,0-1.64-4.45c-.65-.73-.74-.16-.25,1.67Zm7.16,1c.79,3.5,5.28,14.64,5.9,14.64s-.53-3.3-3.88-11.14c-1.44-3.37-2.35-5-2-3.5Zm793.24,4.62c-.39,2.53-.48,4.86-.2,5.16s.82-1.51,1.2-4,.48-4.86.2-5.16-.81,1.51-1.2,4.05ZM78.36,717.11a17.06,17.06,0,0,0,1.35,5c1.79,4.31,1.81,2.3,0-2.78-.75-2.15-1.37-3.15-1.39-2.23ZM97.56,725c.59,1.86,1.26,3.19,1.49,2.94.49-.56-1.4-6.35-2.09-6.35-.26,0,0,1.53.6,3.41ZM909,727.31c-.66,3.15-1,5.93-.79,6.18s1-2.11,1.64-5.24,1-5.91.79-6.18-1,2.08-1.64,5.24ZM81.81,728.53a11.57,11.57,0,0,0,1.61,3.59c.5.6.41-.53-.22-2.5-1.27-4-2.45-5-1.39-1.09Zm801.5,1c-.84,4.64,0,5.54.88,1,.38-1.93.48-3.73.23-4s-.76,1.09-1.11,3Zm-783.18,3.21c.78,3.3,2.09,3.73,1.53.51-.26-1.51-.83-2.75-1.27-2.75s-.56,1-.26,2.24Zm7.78-.31c.81,2.92,5.58,12.55,6.22,12.55.45,0-5.52-13.52-6.4-14.48-.28-.31-.2.56.18,1.93Zm783.57-.06a29.42,29.42,0,0,0-1.06,5.37l-.58,4.46,1.45-4.94c1.3-4.44,1.41-7.23.19-4.89ZM84.87,737.17c.75,3.09,1.23,3.93,1.85,3.24.24-.25-.24-1.72-1-3.25l-1.47-2.78.67,2.79Zm821.56,1.94c-.37,1.69-.92,4.07-1.23,5.29-.38,1.48-.24,1.86.43,1.12,1-1.14,2.69-9.47,1.9-9.47-.25,0-.74,1.38-1.1,3.06Zm-18.74,7.59c-1.06,3.1-1.31,5.68-.45,4.73s2.45-7.59,1.89-7.59c-.25,0-.9,1.29-1.44,2.86Zm-799.3-1.18a13.15,13.15,0,0,0,1.44,3.9c.79,1.53,1.44,2.28,1.44,1.67a13.15,13.15,0,0,0-1.44-3.9c-.79-1.53-1.44-2.28-1.44-1.67Zm18.07,1.39a8.64,8.64,0,0,0,1.46,3.13c1.42,2.08,1.45,2.07.89-.36s-2.35-4.61-2.35-2.77Zm8.07.14a4.51,4.51,0,0,0,1.51,2.37,4.53,4.53,0,0,1,1.51,2.3c0,1.19,6,11.06,6.74,11.06.3,0-.12-1.12-.94-2.5s-2.94-5.14-4.73-8.36c-3.2-5.75-4.09-6.81-4.09-4.87Zm788.92,2.82c-.33,1.47-.9,3.6-1.26,4.74-.45,1.4-.33,1.7.39.94,1.1-1.17,2.78-8.36,2-8.36-.26,0-.75,1.2-1.09,2.68Zm-19.21,6.51c-1,3.74-1.65,8-1,7.33.8-.89,2.48-8.72,1.87-8.72-.24,0-.61.62-.82,1.39ZM114,761.67c.86,1.84,1.8,3.34,2.07,3.34s-.2-1.5-1.06-3.34-1.79-3.34-2.06-3.34.2,1.51,1,3.34Zm759.53,1.83c-.56,1.61-.83,3.14-.59,3.39s.89-1.06,1.48-2.94c1.31-4.15.52-4.56-.89-.45Zm25.36,1.64c-1.46,4.65-.76,5.42.9,1,.71-1.88,1-3.68.76-4s-1,1-1.66,3Zm-773.68.15c5.4,10.07,32.06,42,44.24,52.89l8.06,7.25c13.27,11.94,34.42,28.1,46.4,35.44,3.31,2,7.15,4.54,8.54,5.57a20.81,20.81,0,0,0,5,2.69c1.39.44-1.56-1.81-6.55-5-43.64-28-77.79-59.41-100.06-92.11-4.93-7.23-7.71-10.53-5.67-6.72Zm755.59,2.56c-1.69,4.09-1.37,5,.46,1.24.86-1.73,1.36-3.37,1.14-3.62s-.95.81-1.6,2.38Zm15,5.44c-1.5,4.35-1.2,5,.59,1.37.86-1.74,1.3-3.44,1-3.77s-1,.74-1.59,2.4Zm-26.08,1.24c-1.69,4.1-1.36,5,.46,1.24.86-1.73,1.37-3.37,1.14-3.62s-1,.82-1.6,2.38Zm7.93,1c-1.5,4.36-1.2,5,.6,1.38.85-1.74,1.3-3.44,1-3.77s-1,.74-1.59,2.39Zm-771.5,5.18a22.59,22.59,0,0,0,3.24,4.74c.79.72.17-.82-1.39-3.43-3.26-5.47-4.55-6.37-1.85-1.31Zm786.78.47c-.63,1.53-.76,2.79-.28,2.79.84,0,2.35-4.57,1.73-5.25-.16-.18-.81.93-1.45,2.46Zm-19.56,4.18c-2.84,5.91-3.88,8.64-3.29,8.64.25,0,1.83-3,3.51-6.69,3.46-7.57,3.27-9.21-.22-1.95Zm-744.83-.46a14,14,0,0,0,2.75,3.62c1.09,1,.84.2-.64-2-2.65-4-3.64-4.74-2.11-1.58ZM111.41,789c1.56,3.32,5.09,8,5.08,6.69,0-.61-1.38-2.87-3.06-5s-2.6-2.9-2-1.68Zm23.35,4.72c1.35,1.68,5.36,6.31,8.91,10.31,5,5.57,4.52,4.86-1.88-3-4.58-5.67-8.58-10.3-8.9-10.3s.53,1.37,1.87,3ZM860,796.21c-.85,1.83-1.33,3.34-1,3.34s1.2-1.51,2.06-3.34,1.34-3.35,1.06-3.35-1.21,1.51-2.07,3.35Zm26.21,0c-.85,1.83-1.33,3.34-1.05,3.34s1.2-1.51,2.06-3.34,1.34-3.35,1.06-3.35-1.21,1.51-2.07,3.35Zm-20.32,4.17c-1.64,2.91-3.8,6.67-4.8,8.36s-1.61,3.06-1.35,3.06c.53,0,6.77-10.2,8.7-14.2,2.14-4.43.53-2.67-2.55,2.78Zm16.94,2.67c-.71,1.26-1.07,2.53-.8,2.83s1-.55,1.66-1.87,1-2.61.8-2.84-1,.62-1.66,1.88Zm-759.65,2.29c1.58,2.28,3.1,3.89,3.36,3.59s-1-2.15-2.87-4.12l-3.37-3.59,2.88,4.12Zm731.66.06c-3.47,6.5-3.69,7.06-1.92,4.73,2-2.69,3.81-6.12,3.15-6.12-.27,0-.82.62-1.23,1.39Zm-720.65,13c11.46,13.23,29.74,30.88,29.74,28.72a61.06,61.06,0,0,0-6.3-5.89c-3.46-3-11.74-11.19-18.39-18.22s-8.93-9.09-5-4.61Zm738.74,2.15c-2.87,4.7-7.39,11.55-10.06,15.23s-4,5.94-3,5c3.33-2.93,19.46-27.46,18.64-28.35-.22-.24-2.75,3.4-5.62,8.09Zm-19.06-.65a233,233,0,0,1-17.31,21.9c-2.91,3.32-5.14,6.21-4.93,6.43.75.84,18.41-20.88,25.3-31.12,4.64-6.9,2.23-4.7-3.06,2.79Zm-696-.34c2.5,2.53,7.71,7.43,11.6,10.88,9.46,8.39,9.58,8.49,9.58,7.75,0-.36-3.52-3.61-7.82-7.24a112.78,112.78,0,0,1-9.83-9.08,31.79,31.79,0,0,0-5-4.7c-1.91-1.4-1.35-.52,1.51,2.39Zm669.81,22.94c-7.79,8.77-12.56,14.53-10.58,12.77,4.95-4.4,26.64-29.25,25.18-28.85-.24.07-6.81,7.3-14.6,16.08Zm-643.6-.19a24.22,24.22,0,0,0,4.29,3.41l4.28,3-3.53-3.38c-3.17-3-5-4.16-5-3Zm662.3,13.31c-6.38,6.89-14.32,14.77-17.64,17.5s-6.27,5.25-6.55,5.58c-.94,1.14-16.62,11.86-22.52,15.4C750.31,923.73,676.44,928,623.1,904.26c-14-6.23-25.69-11.13-26.52-11.13-.58,0-2.36-1.22-4-2.72a16.92,16.92,0,0,0-5.88-3.48,14.83,14.83,0,0,1-5.48-3.25,17,17,0,0,0-4.27-3.16c-1.42-.55-24.74-17.37-29.47-21.25-.8-.65-3.76.82-8.68,4.32C528,871.3,528.44,871,514.6,879c-7,4-15.13,8.4-18.06,9.68s-7.28,3.3-9.64,4.5a24,24,0,0,1-5.39,2.17,7.18,7.18,0,0,0-2.83,1.08c-10.17,6.31-56.6,18.34-79.37,20.57-28.71,2.8-70.08,2.26-82.52-1.09-1.19-.32-6.25-1.28-11.24-2.13a289,289,0,0,1-32.25-7.67l-10.59-3.32C240.64,896,206.08,878.55,187,864.57c-10.45-7.65-10.73-7.81-8.64-5.19,1.76,2.21,1.71,2.25-3.53,3-20.56,2.7-56.72,13.53-72.88,21.81-43.77,22.43-3,46.75,107.38,64.08C248.85,954.44,291,958.6,362,963.3c91.88,6.08,264.17,4.45,350.3-3.31,29.45-2.65,37.33-3.4,46.88-4.42,193.21-20.72,239.75-62.52,101.53-91.22-18.89-3.92-18.26-3-9.27-13,4.12-4.58,7.27-8.31,7-8.29s-5.7,5.67-12.08,12.57ZM167.57,851c4.47,3.73,5.33,4,1.94.67-1.69-1.67-3.47-3-4-3.06s.42,1.06,2,2.39Zm658.1,1.77c-2.25,2.29-5.65,5.57-7.57,7.3-3,2.7-2.83,2.65,1.22-.39s12-11.12,10.88-11.09a34.4,34.4,0,0,0-4.53,4.18ZM206.26,857.9c1.39.89,2.71,1.41,2.94,1.16.63-.7-.13-1.22-2.94-2l-2.52-.75,2.52,1.63Zm5.61,3.44a7,7,0,0,0,3,1.64c.56,0,.13-.74-1-1.64a6.93,6.93,0,0,0-3-1.63c-.55,0-.12.73,1,1.63ZM803,866.47l-3.49,3.42,3.78-3c3.34-2.65,4.43-3.85,3.49-3.85a34.87,34.87,0,0,0-3.78,3.42Zm4.18,1.58c-7.95,6.13-9,7.25-3.42,3.79,4.12-2.58,11.39-8.71,10.37-8.75a60.76,60.76,0,0,0-7,5Zm-581.32,1.18c2.17,1.79,4,2.16,3.16.64a5.53,5.53,0,0,0-2.83-1.62c-2.21-.61-2.22-.58-.33,1Zm14.7,1.34c0,1,18.1,10.7,18.67,10.07.21-.23-3.91-2.78-9.16-5.66s-9.52-4.86-9.51-4.41Zm555.17.91c-3.77,2.26-3.54,3.2.25,1,1.67-.95,3-2,3-2.26,0-.72-.11-.68-3.28,1.22Zm-563.26.95c2.81,1.87,5,2.36,3.48.77a9.83,9.83,0,0,0-3.48-1.72l-2.52-.73,2.52,1.68Zm235.54,6c-6.57,2.86-11.53,5.35-11,5.54s5.54-1.67,11.17-4.14c10.61-4.65,17.45-6.17,12.29-2.73l-2.52,1.68,2.52-.75c3-.89,8.06-3.64,8.06-4.39,0-2.07-10.2.31-20.51,4.79Zm327-1.87c-1.67,1.51-1.84,1.89-.5,1.12,3.29-1.87,5.11-3.42,4-3.41-.55,0-2.14,1-3.53,2.29Zm-553.88-.23a9.66,9.66,0,0,0,3.48,1.72l2.52.73-2.52-1.68c-2.81-1.87-5-2.36-3.48-.77Zm7.51,3.32c2.46,1.61,6.7,2.79,5.55,1.53a10.14,10.14,0,0,0-4-1.81c-2-.47-2.49-.37-1.51.28Zm224.29.75c-2.52,1.34-2.6,1.49-.5.93,2.86-.78,6.07-2.58,4.54-2.56a15,15,0,0,0-4,1.63Zm315.47-.08c-1.08.9-1.47,1.65-.89,1.67a6.57,6.57,0,0,0,3-1.6c1.07-.9,1.47-1.65.89-1.67a6.57,6.57,0,0,0-3,1.6Zm-527.07,1.87c.5.9-.15,1.08-2.21.6l-2.92-.67,3,1.51c1.81.91,3.27,1.1,3.62.47s1.63-.6,3.33.11c1.52.64,2.47,1.66,2.13,2.27-.58,1,.07,1.25,4.7,1.56a4.16,4.16,0,0,1,2.43,1,5.66,5.66,0,0,0,3.37.79c2.35,0,2.26-.19-.92-1.49-1.94-.8-6.35-2.78-9.8-4.41-7-3.33-7.77-3.51-6.75-1.69Zm203.29,1c-3.37,1.5-2.75,2.26.76.91,1.66-.64,3-1.37,3-1.61,0-.67-1.23-.44-3.78.7Zm317.73.46c-1.89,1.56-1.87,1.6.33,1a5.49,5.49,0,0,0,2.83-1.61c.85-1.53-1-1.16-3.16.63Zm-331.95,1.89c-1.87.6-3.2,1.29-3,1.54.51.57,7.86-1.6,7.86-2.31s-.79-.53-4.89.77Zm321.93.4-3,1.58,3-.61c2.32-.46,2.67-.32,1.51.59-1.89,1.49,0,1.58,2,.11,1.1-.78,1.15-1.09.19-1.1-.72,0-1-.52-.69-1.13.77-1.39.68-1.37-3,.56Zm-320.06,1.67c-2,1.43.51,1.43,3.53,0l2-1-2-.06a6.72,6.72,0,0,0-3.53,1Zm-14.11,2.32c-3.05,1.15-4.26,1.84-2.69,1.52,1.9-.39,2.63-.19,2.18.61s.25,1,2.19.44c4.41-1.19,7.13-2.51,5.37-2.61-1.34-.08-1.34-.21,0-1.17,2.46-1.76-.63-1.23-7.05,1.21Zm325.29.41c-.8.89-1.64,1.52-1.85,1.39s-.13.16.19.63,2.08.27,3.9-.43c2.41-.93,2.94-1.53,2-2.22-1.88-1.33-2.51-1.23-4.19.63Zm-338.9,3.24c-2.4.8-3.56,1.67-2.86,2.15,1.58,1.08,11.59-1.35,10.87-2.65s-3-1.17-8,.5Zm329.89-.22c-3.16,1.27-3.83,3.64-.76,2.68l4.05-1.27c1.11-.35,1.77-1.11,1.45-1.67-.68-1.23-1.11-1.21-4.74.26Zm-341.23,2.85c-1.8.25-3.28.86-3.28,1.34,0,1,7.74-.31,8.78-1.44.35-.39,0-.62-.8-.53l-4.7.63Zm332.41.31-2.52.89,2.77.11c1.52.06,2.77-.39,2.77-1s-.11-1.07-.25-1l-2.77,1Zm-344.51,3a7.79,7.79,0,0,0,3.53,0c1-.28.18-.52-1.76-.52s-2.74.24-1.77.52Z"/><path id="path6" class="cls-6" d="M629.85,324c-8,2.54-1.91,17.6,16.39,40.76,4.46,5.65,11.28,14.55,15.16,19.77S669.17,394.91,670,396c3,3.77,14.73,21,20.25,29.8l10.28,16.43c2.58,4.13,4.7,7.73,4.7,8s2.26,4.27,5,8.89,5.05,8.63,5.05,8.89,6.76,13.71,11.09,21.86c2.86,5.37,11.12,25,13.61,32.31.94,2.75,2.29,6.51,3,8.35,3.69,9.69,2.61,14-1.46,5.85-11.54-23.11-47.3-75.28-75.39-110-38.62-47.74-63.65-69.27-88-75.73-17.2-4.56-22.22-1.44-17.38,10.8,4.21,10.66,6.33,14.4,12.45,21.94,9.66,11.93,16.31,20.44,21.81,27.93,2.7,3.67,5.74,7.68,6.76,8.91,3.36,4.07,25.38,36.61,31,45.76,7.14,11.7,8.14,13.45,15.35,26.67a17,17,0,0,0,1.81,2.79,62.58,62.58,0,0,1,3.63,6.68c1.67,3.37,3.94,7.88,5,10,2.72,5.29,11.88,25.26,13.8,30.07C675.6,550.28,686.1,583,686.1,585s-4.86-4-5.46-6.61c-4.11-18.12-52.63-90-92.1-136.46l-19.17-22.57c-11.09-13.22-30.73-22.72-37.47-18.11-1.79,1.21-1.14,16.2,1,22.86a51.44,51.44,0,0,1,2,7.61c0,2.19,15.67,36.16,18.53,40.29a41.39,41.39,0,0,1,2.42,4.18l2.52,5a18.79,18.79,0,0,0,1.8,3.06c.69.7,18.06,33.3,21.38,40.11,1.34,2.76,3.93,8,5.76,11.7s5.19,10.69,7.48,15.59,5,9.81,6,10.91,1.52,2.47,1.2,3.06.09,2.45.93,4.13c2,3.94,6.7,15.54,10.11,24.8,1.47,4,3.1,8.24,3.61,9.46s1.64,4.49,2.49,7.25,3.88,12.53,6.73,21.72c5.76,18.6,7.62,26.39,9.07,37.88.54,4.29,1.69,11.42,2.54,15.86,3.57,18.44-5.21,36.06-25.14,50.45l-6.81,4.92,3.57,2.38c15.5,10.34,17.42,29.07,5.1,49.84-4.3,7.24-18.11,23-20.15,23a56.72,56.72,0,0,0-5.81,3.94,123.78,123.78,0,0,1-12.93,7.91c-10.34,5.41-11,5.72-15.63,7-9.38,2.7-8.61,4.45,7.22,16.24,6.56,4.88,12.16,9.13,12.44,9.44.63.69,5.46,3.53,14.61,8.59,3.89,2.14,7.74,4.34,8.57,4.87,8.94,5.77,29.27,14.44,43.35,18.5,47.44,13.66,86,11.39,125-7.37,43.47-20.88,82.84-66.22,100.21-115.39,1.52-4.29,3.35-9.3,4.07-11.14,16-40.48,22.35-119.72,14.68-182.7-1.56-12.8-5-27.37-8.56-36.76-.7-1.84-2.52-6.86-4-11.15-6.52-18.42-23-52.56-32.62-67.4-1.79-2.75-4-6.26-4.93-7.79-18.73-31-70.43-77.93-106.36-96.63-6.23-3.24-6.32-3.48,4.61,12.31,17.44,25.19,27.49,42,45,75.41,8.51,16.19,21.91,50.57,21,53.72-.44,1.47-.92.72-7.73-11.95-5.37-10-18.39-30.84-25.05-40.1l-8.43-11.73c-11.33-15.78-38.79-50.58-51-64.58-4.53-5.21-9.3-10.78-10.59-12.37-18.35-22.59-54-39.75-71.2-34.28"/><path class="cls-7" d="M750.75,512.64l-4.07-8c54.38-7,71.83-33.94,72-34.21l.45-.57c11.53-12,22.21-20.26,32.47-25.1,1.64,2.74,3.39,5.7,5.22,8.83.08.12.15.26.23.39-6,3.72-13.65,9.7-22.87,19.22C831.85,476.72,811.5,504.84,750.75,512.64Z"/><path class="cls-7" d="M889.91,518.48c-5.62,5.21-11.73,10.27-17.77,15.25-13.47,11.14-22.37,23.61-28.84,40.47a195.21,195.21,0,0,1-10.46,23.34c-18.63,34.56-45.89,52.05-81.05,52.05-1.21,0-2.41,0-3.62-.05l1.08-8.25c28,1,50.78-14.51,67.7-45.91a187.74,187.74,0,0,0,10.2-22.75c6.85-17.85,16.39-31.18,30.93-43.2,9.28-7.66,18.75-15.48,26.09-23.68Q887,511.72,889.91,518.48Z"/><path class="cls-7" d="M246.93,637.06l1.1,7.78c-1.27,0-2.52.06-3.74.06-44.84,0-64.76-26-73.4-37.25-8-10.44-19.21-21.73-31.07-33.68-13.13-13.25-26.94-27.18-37.62-41.27,2.57-4.38,5.28-8.8,8.17-13.27,10.73,17.34,28.08,34.82,44.35,51.23,12,12.12,23.37,23.55,31.64,34.33C198.94,621.4,216,638,246.93,637.06Z"/><path class="cls-7" d="M162,478.64a121.89,121.89,0,0,0-11.53-10c2.74-2.86,5.48-5.61,8.19-8.23a123.84,123.84,0,0,1,18.38,15l.28.27.18.28c.17.24,17.61,25.64,72,32.23l-4.07,7.55C184.71,508.47,164.38,482,162,478.64Z"/><path class="cls-8" d="M724.6,455.84c-49.25-16.94-120.35-77.59-120.35-77.59-49.8-41.8-107.93-38.93-144.23-31-27.13,5.9-48.64,21.83-71.65,37.85-54.31,37.8-92.48,54.22-116.61,61.27l.56,5.05s5,9,7.74,25.49c16.63-2.29,33.2-4.82,49.76-7.93,44.24-8.33,86-27.46,130.68-33.53,42.63-5.8,87.75-5.38,128.42,11.55,0,0,94.87,30.54,132.44,32.51C723,465.56,724.6,458,724.6,458Z"/><path class="cls-8" d="M721.37,479.43a.07.07,0,0,1,0,.05c-37.57-2-132.44-32.51-132.44-32.51C548.25,430,503.13,429.62,460.5,435.42c-44.69,6.07-86.44,25.2-130.68,33.53-16.56,3.11-33.13,5.64-49.76,7.93,2.45,14.92,3,36-3.8,62.36,38.31-2.56,76.93-3,115,2.92,40.24,6.22,78.37,29.9,119,31.18,29.46.93,96-18.85,125.09-23.21,40.42-6,43.28-6.48,82.8-9.28A529.76,529.76,0,0,1,721.37,479.43Z"/><path class="cls-8" d="M635.29,550.13c-29.08,4.36-95.63,24.14-125.09,23.21-40.59-1.28-78.72-25-119-31.18-38.05-5.89-76.67-5.48-115-2.92-.3,1.19-.6,2.37-.94,3.59a366.17,366.17,0,0,0-9.56,37.45c41.74-1.43,83.95,44.24,125.48,50.67,40.24,6.22,78.37,29.9,119,31.18,29.46.93,96-18.86,125.09-23.21,40.86-6.12,43.33-49.39,84.11-57.44-.92-14.68-1.3-28.27-1.31-40.63C678.57,543.65,675.71,544.08,635.29,550.13Z"/><path class="cls-8" d="M635.29,638.92c-29.08,4.35-95.63,24.14-125.09,23.21-40.59-1.28-78.72-25-119-31.18-41.53-6.43-83.74-52.1-125.48-50.67a265.35,265.35,0,0,0-5.28,41.47c39.51,21.3,73,67.57,106.82,91.76,42.73,30.56,95.29,42.4,145.65,42.4,61.1,0,118.81-27.67,167.06-67.66,15.58-12.91,30.61-27,47.06-38.14-4-24.87-6.36-47.85-7.67-68.63C678.62,589.53,676.15,632.8,635.29,638.92Z"/><path class="cls-7" d="M732.62,680.8q-3.2-15.78-5.55-30.69c-16.45,11.17-31.48,25.23-47.06,38.14-48.25,40-106,67.66-167.06,67.66-50.36,0-102.92-11.84-145.65-42.4-33.82-24.19-67.31-70.46-106.82-91.76-.44,12.23.37,24.1,3.31,34.12l-.2,7.51c38.17,22,70.78,66.47,103.71,90C410,784,462.59,795.81,513,795.81c61.1,0,118.81-27.67,167.06-67.66,17.62-14.6,34.53-30.68,53.59-42.37h0Z"/><path class="cls-7" d="M757.69,458c-39.11,17.73-153.44-79.79-153.44-79.79-49.8-41.8-107.93-38.93-144.23-31-27.13,5.9-48.64,21.83-71.65,37.85C284,457.7,239.22,451.39,239.22,451.39l-4.51-41s49.33,4.09,153.66-68.54c23-16,44.52-32,71.65-37.85,36.3-7.9,94.43-10.77,144.23,31,0,0,114.33,97.52,153.44,79.79Z"/><path class="cls-7" d="M757.69,458V414.82c-8.27,3.75-19.9,2.33-33.09-2.21V458s-19.06,88.66,8,222.76l1,5a115.07,115.07,0,0,1,30.45-13.5C739.45,543,757.69,458,757.69,458Z"/><path class="cls-7" d="M272.32,451.39l-.48-5.07-3.91-41.59c-22.34,6.56-33.22,5.66-33.22,5.66l4.51,41s19,33.8,3,91.44c0,0-21.81,66.68-12.75,108.25,11.91,1.61,23.24,6,34.11,12.3l.2-7.51c-12-41,11.53-113,11.53-113C291.36,485.19,272.32,451.39,272.32,451.39Z"/><path class="cls-9" d="M519.73,432.35c-.75-6.09-67.92-16-68.79-22-1.09-7.45,64.08-11,62.81-18.24-.73-4.18,78.86-10.55,75.46-12.43-39-21.56-79.77-10.3-80.86-15.37q-2.37-11.12-5-21.88a203,203,0,0,0-43.3,4.75c-27.13,5.9-48.64,21.83-71.65,37.85-54.31,37.8-92.48,54.22-116.61,61.27l.56,5.05s5,9,7.74,25.49c2.45,14.92,3,36-3.8,62.36-.3,1.19-.6,2.37-.94,3.59a366.17,366.17,0,0,0-9.56,37.45,265.35,265.35,0,0,0-5.28,41.47c39.51,21.3,73,67.57,106.82,91.76C406.11,741.26,453,753.58,499,755.61c1.22-4.44-94.62-23.09-93.48-27.62,1.18-4.69,99.33,4.74,100.43,0,.83-3.64-33.14-7.31-32.35-11,.58-2.7,77.7-11.33,78.25-14.06,3.07-15.19-36-24.91-33.82-40.92,1.17-8.41-29.56-24.27-28.63-32.88,1.71-15.9,34.79-24.78,35.64-41.28.26-5.09,38.51-12.11,38.69-17.24.12-3.54-37.8-5.19-37.72-8.76q.24-10.42.25-21c0-7.12-54-17.18-54.15-24.22C471.45,486.62,523.2,460.42,519.73,432.35Z"/><path class="cls-10" d="M411.51,471.13c41,7.26,83,9.25,124.41,4.59,40.42-4.54,77.62-9.35,118.35-3.24,20,3,47.1,4.85,66.12,16.28.32-3.37.65-6.49,1-9.33a.07.07,0,0,1,0,.05c-37.57-2-132.44-32.51-132.44-32.51C548.25,430,503.13,429.62,460.5,435.42c-44.69,6.07-86.44,25.2-130.68,33.53-16.56,3.11-33.13,5.64-49.76,7.93q.42,2.61.77,5.47C323.19,470.73,368.7,463.57,411.51,471.13Z"/><path class="cls-10" d="M633.24,569.47c13-2.07,25.15-3.33,37.08-9.76,3.57-1.93,6.17-6.07,9.6-8.34,7.78-5.13,17.4-7.23,26.65-9.7-29,2.14-35.2,3.06-71.28,8.46-20.63,3.09-60.09,13.93-91.81,19.65l40.77.78C600.56,569.53,616.92,569.47,633.24,569.47Z"/><path class="cls-10" d="M504.22,702.61c29.46,1.17,102-47.24,131.07-52.72,28.4-5.35,38.25-33.3,55.3-53.25-17.05,15.85-26.91,38-55.3,42.28-29.08,4.35-95.63,24.14-125.09,23.21-40.59-1.28-78.72-25-119-31.18-24.31-3.76-48.85-21-73.39-34.3,24.54,16.8,49.08,38.47,73.39,43.2C431.48,647.68,463.63,701,504.22,702.61Z"/><path class="cls-10" d="M364.12,547.81c8.27,2.77,16.69,5,25.14,7s17,2.52,25.5,3.6c18.58,2.35,35.9,10.82,54.34,13.92a223.67,223.67,0,0,0,55.22,2.83,237.07,237.07,0,0,0,31.24-5.12l-.87,0-11.21-.22h0c-13,2.36-24.75,3.84-33.33,3.57C470.89,572.1,433.89,549.85,395,542.8c-1.27-.21-2.53-.45-3.8-.64-2.22-.35-4.43-.66-6.65-1l-2.19-.29c-1.48-.19-3-.38-4.47-.55l-2.61-.29c-1.36-.16-2.72-.3-4.08-.43l-2.75-.27-4-.35-2.77-.22c-1.38-.11-2.77-.2-4.15-.29l-2.56-.17q-3.13-.2-6.26-.34l-3.46-.14-3.1-.12-3.82-.1-2.68-.06-4.06-.07-2.31,0-4.39,0H323.4q-14.64,0-29.27.76C313.73,540.1,361.59,544.92,364.12,547.81Z"/><path class="cls-11" d="M535.92,461.66c-41.38,4.66-82.91-7-124.41-4.59-20.7,1.23-41.9,6.15-63,12.24,21.19-2,42.41-1.82,63,1.82,41,7.26,83,9.25,124.41,4.59,32.39-3.63,62.71-7.43,94.43-5.66C598.78,464.28,567.34,458.13,535.92,461.66Z"/><path class="cls-11" d="M457,561.8c-20.54-7-41-15.2-61.92-19-1.27-.21-2.53-.45-3.8-.64-2.22-.35-4.43-.66-6.65-1l-2.19-.29c-1.48-.19-3-.38-4.47-.55l-2.61-.29c-1.36-.16-2.72-.3-4.08-.43l-2.75-.27-2.11-.18,27,9.85S429.13,561.2,457,561.8Z"/><path class="cls-11" d="M645.52,557.5c12.35-1.71,19.88-6.2,28.49-12.88-9.8,1.18-20.41,2.77-38.72,5.51-12.83,1.92-32.95,6.85-54,11.67h35.45C626.23,561.8,636.16,558.8,645.52,557.5Z"/><path class="cls-11" d="M635.29,638.92c-29.08,4.35-95.63,24.14-125.09,23.21-40.59-1.28-78.72-25-119-31.18a95.73,95.73,0,0,1-22.67-6.86c9.89,4.77,19.75,8.5,29.57,10,40.24,6.22,71.47,40.8,112.06,42.09,29.46.93,96-32.37,125.09-36.73,27.13-4.05,37.35-24.49,53.08-40.13q1.1-1.37,2.22-2.7C673.54,612.49,663.68,634.67,635.29,638.92Z"/><path class="cls-12" d="M250.33,421.6c22-3.91,67.4-17.92,138-67.09,23-16,44.52-32,71.65-37.86,36.3-7.9,94.43-10.77,144.23,31,0,0,98.14,85.85,142.92,81.95"/><path class="cls-12" d="M264.6,435.2c25-6.87,65.93-23.56,123.77-63.82,23-16,44.52-31.95,71.65-37.85,36.3-7.9,94.43-10.78,144.23,31,0,0,84.88,72.4,133.38,81.1"/><path class="cls-12" d="M752.07,655.1C732.15,535.5,748.78,458,748.78,458l0-23.22"/><path class="cls-12" d="M740,655.1c-18.49-116.4-2.38-191.41-2.38-191.41l.06-14.81"/><path class="cls-12" d="M246.23,422.61l3.17,28.78s19,33.8,3,91.44c0,0-18.94,57.9-14.19,99.43"/><path class="cls-12" d="M260.77,439.05l1.36,12.34s19,33.8,3,91.44c0,0-12.83,47-14.8,86.94"/><path class="cls-12" d="M753.29,662.17l-19.69,11c-19.06,11.69-36,27.76-53.59,42.36-48.25,40-106,67.66-167.06,67.66-50.36,0-102.92-11.84-145.65-42.4-32.93-23.55-65.54-68-103.71-90l-23.42-11"/><path class="cls-12" d="M733.6,659.06c-19.06,11.7-36,27.77-53.59,42.37-48.25,40-106,67.66-167.06,67.66-50.36,0-102.92-11.84-145.65-42.4-32.93-23.55-65.54-68-103.71-90l-13.44-7.08"/><path class="cls-13" d="M81.12,574.77A369.82,369.82,0,0,1,102.2,532.7c2.57-4.38,5.28-8.8,8.17-13.27A340.57,340.57,0,0,1,141,479.05q4.78-5.42,9.56-10.37c2.74-2.86,5.48-5.61,8.19-8.23,4.76-4.6,9.47-8.89,14.07-12.85"/></svg>